<?xml version="1.0" encoding="UTF-8"?>
<svg id="Layer_1" xmlns="http://www.w3.org/2000/svg" version="1.1" xmlns:xlink="http://www.w3.org/1999/xlink" viewBox="0 0 1200 630">
  <!-- Generator: Adobe Illustrator 29.5.1, SVG Export Plug-In . SVG Version: 2.1.0 Build 141)  -->
  <defs>
    <style>
      .st0 {
        fill: #ae742a;
      }

      .st1 {
        fill: #b78b2d;
      }

      .st2 {
        fill: url(#linear-gradient2);
      }

      .st3 {
        fill: #c69150;
      }

      .st4 {
        fill: #cbbaa1;
      }

      .st5 {
        fill: #788945;
      }

      .st6 {
        fill: #c77729;
      }

      .st7 {
        fill: #1a4d57;
      }

      .st8 {
        fill: #ac8851;
      }

      .st9 {
        fill: #40724b;
      }

      .st10 {
        fill: #aaaf91;
      }

      .st11 {
        fill: #4b6c3d;
      }

      .st12 {
        fill: #be6328;
      }

      .st13 {
        fill: #c2832b;
      }

      .st14 {
        fill: url(#linear-gradient1);
      }

      .st15 {
        fill: none;
      }

      .st16 {
        fill: #2a7861;
      }

      .st17 {
        fill: #305333;
      }

      .st18 {
        fill: #1a5f5e;
      }

      .st19 {
        fill: #183f54;
      }

      .st20 {
        fill: #68864e;
      }

      .st21 {
        fill: #cfb9a4;
      }

      .st22 {
        fill: #c8beb5;
      }

      .st23 {
        fill: #5d8e6c;
      }

      .st24 {
        fill: #869a73;
      }

      .st25 {
        fill: #bd4a27;
      }

      .st26 {
        fill: #284634;
      }

      .st27 {
        fill: #6c4019;
      }

      .st28 {
        fill: #cca82c;
      }

      .st29 {
        fill: #532e16;
      }

      .st30 {
        fill: url(#linear-gradient4);
      }

      .st31 {
        fill: #caab86;
      }

      .st32 {
        fill: #8f9b67;
      }

      .st33 {
        fill: #9f752b;
      }

      .st34 {
        fill: url(#linear-gradient5);
      }

      .st35 {
        fill: url(#linear-gradient3);
      }

      .st36 {
        fill: #c8c8bf;
      }

      .st37 {
        fill: #70a080;
      }

      .st38 {
        fill: #cdb853;
      }

      .st39 {
        fill: #be9a4f;
      }

      .st40 {
        fill: url(#linear-gradient6);
      }

      .st41 {
        fill: #4d7c43;
      }

      .st42 {
        fill: #257773;
      }

      .st43 {
        fill: #6d9468;
      }

      .st44 {
        fill: #3a623a;
      }

      .st45 {
        fill: url(#linear-gradient);
      }

      .st46 {
        fill: #1e695d;
      }

      .st47 {
        fill: #caaa71;
      }
    </style>
    <linearGradient id="linear-gradient" x1="681.92" y1="489.85" x2="721.82" y2="545.78" gradientUnits="userSpaceOnUse">
      <stop offset="0" stop-color="#456339"/>
      <stop offset="1" stop-color="#537e40"/>
    </linearGradient>
    <linearGradient id="linear-gradient1" x1="780.09" y1="196.44" x2="854.1" y2="209.94" gradientUnits="userSpaceOnUse">
      <stop offset="0" stop-color="#ba6528"/>
      <stop offset="1" stop-color="#bf832b"/>
    </linearGradient>
    <linearGradient id="linear-gradient2" x1="737.52" y1="146.63" x2="691.77" y2="160.98" gradientUnits="userSpaceOnUse">
      <stop offset="0" stop-color="#487d41"/>
      <stop offset="1" stop-color="#345e38"/>
    </linearGradient>
    <linearGradient id="linear-gradient3" x1="406.08" y1="365.55" x2="364.13" y2="386.63" gradientUnits="userSpaceOnUse">
      <stop offset="0" stop-color="#bf812b"/>
      <stop offset="1" stop-color="#ba6929"/>
    </linearGradient>
    <linearGradient id="linear-gradient4" x1="435.38" y1="417.41" x2="477.42" y2="472.02" gradientUnits="userSpaceOnUse">
      <stop offset="0" stop-color="#356238"/>
      <stop offset="1" stop-color="#457d41"/>
    </linearGradient>
    <linearGradient id="linear-gradient5" x1="537.05" y1="232.47" x2="539.43" y2="378.28" gradientUnits="userSpaceOnUse">
      <stop offset="0" stop-color="#c9862a"/>
      <stop offset="1" stop-color="#c16228"/>
    </linearGradient>
    <linearGradient id="linear-gradient6" x1="638.91" y1="230.82" x2="626.1" y2="376.98" gradientUnits="userSpaceOnUse">
      <stop offset="0" stop-color="#ca872a"/>
      <stop offset="1" stop-color="#c16228"/>
    </linearGradient>
  </defs>
  <path class="st17" d="M370.46,466.48c.08,1.26,1.63,1.65,1.37,2.49-36.17,11.89-74.19,16.56-112.09,9.34-.5-1.19,1.01-2.27.68-3.11-.61-1.59-5.09-2.1-6.49-3.11-7.13-5.16-2.95-16.23.68-22.42,10.47,4.8,19.9,17.44,9.23,25.84,7.39,4.7,58.36,3.81,61.86.31,2.07-2.07-5.53-2.97-6.83-3.74-3.23-1.89-15.63-17.43-14.7-20.24,1.21-3.66,14.69-.74,17.77,3.11,5.14,6.45.45,15.92,9.23,20.24,12.65-2.66,27.17-4.6,39.3-8.72Z"/>
  <path class="st17" d="M260.42,475.2c.32.84-1.18,1.92-.68,3.11-15.39-2.93-34.72-8.79-48.87-14.95-2.46-1.07-13.5-8.63-14.35-8.72-2.58-.26-8.36,5.7-10.94,6.23-3.98.82-19.49-1.69-16.75-7.16s15.03-5.68,20.5-3.74c-4.82-3.41-17.48-12.82-19.14-17.75-.64-1.91-.29-2.18,1.37-3.74,9.02,10.96,18.81,18.43,31.1,26.15l-2.39-9.03,3.76-10.9c5.69,4.7,11.69,15.02,10.59,22.11-.09.57-2.96,1.88-2.39,2.8,1.55,2.54,42.04,15.28,48.19,15.57Z"/>
  <path class="st11" d="M672.56,491.39c2.04,3.04,4.31.41,3.42,7.16-.52,3.95-8.39,12.93-11.96,15.26-6.73,4.38-11.38,4.16-19.48,3.42-2.47-5.44,20.32-26.15,27.34-27.09.68.82.54,1.04.68,1.25Z"/>
  <path class="st41" d="M288.78,483.29c2.79.89-5.62,7.92-5.81,8.41-.08.21,1.46,2.81.68,4.36-5.45,10.86-13.86,16.45-27.34,11.83,2.68-4.57,3.09-11.44,7.86-14.63,8.18-5.47,19.86-.79,24.61-9.96Z"/>
  <path class="st17" d="M260.42,401.09c15.67,23.49,56.8,30.25,82.02,17.44-.24.36-2.66,5.29-2.73,5.6-14.02,5.22-32.79,4.86-47.5,1.87-4.06-.83-7.73-4.39-11.96-3.11-10.52-6.27-16.64-10.75-23.92-20.55.21-.02,3.46-1.02,4.1-1.25Z"/>
  <path class="st44" d="M861.2,185.01c-1.51-.35-4.77-5.14-5.47-5.6,8.31-.1,18.38-1.4,26.31-3.74,9.68-2.85,16.66-9.63,26.31-10.9-3.7,10.01-38.49,22.26-47.16,20.24Z"/>
  <path class="st20" d="M1023.53,346.29c17.57-2.99,26.25,11.77,22.21,25.84-.2.71-7.11,12.5-7.86,12.77-3.48,1.25,1.52-5.09,1.71-5.92,1.08-4.78.05-9.85.68-14.32.1-.74,3.38-1.88,2.73-6.23-2.22-14.8-33.46-11.59-29.39,4.36-.83,1.64-2.59-.13-2.73-.62-1.76-6.05,6.26-14.79,12.64-15.88Z"/>
  <path class="st33" d="M582,97.21c6.34,5.56,8.55,11.66-2.05,14.32-8.87,2.23-14.76-5.14-9.91-10.9,2.52-2.99,8.96-1.9,11.96-3.42Z"/>
  <path class="st0" d="M632.23,105.3c.16.68.71,2.36.68,2.49-.21,1.14-4.34,5.27-5.81,5.6-7.19,1.63-11.36-2.06-13.33-8.1-.1-.31.05-.85,0-1.25,4.77-.98,6.31-9.07,15.38-3.74,1.53.9,2.7,3.37,3.08,4.98Z"/>
  <path class="st27" d="M584.39,503.84c-2.7,5.65-1.28,5.49,4.1,7.47-4.25,11.13-22.38,6.86-18.45-3.42,1.92-5.02,9.48-5.74,14.35-4.05Z"/>
  <path class="st27" d="M539.28,504.46c.07-.33,1.15-2.28,1.37-2.49,5.26-5.02,18.81,1.22,15.72,7.78-3.93,8.35-19.38,5.99-17.09-5.29Z"/>
  <path class="st20" d="M968.17,410.43c2.75-.46,10.18,13.88,9.91,15.26-.35,1.75-8.59,6.49-11.28,5.92-1.87-.77-4.4-20.21,1.37-21.17Z"/>
  <path class="st27" d="M620.61,506.33c.15.44.08,1.9,0,2.49-.71,5.33-7.44,8.39-12.99,7.47-.3-4.71-1.8-4.49-4.1-6.54-.19-.17.15-1.48,0-1.56,2.15-6.63,15-8.18,17.09-1.87Z"/>
  <path class="st44" d="M850.27,406.7c-2.81.34-5.5.67-6.83,3.74-.51-1.6-1.77-1.17-3.08-1.25-13.73-.78-27.7.8-41.35.62-1.39-.02-2.48.34-3.42-.93.99-.11,1.56-.7,2.05-.93,2.91-1.38,7.75-1.35,10.94-2.49,12.27,2.64,27.81-1.69,39.64-.62.42.04,1.38,1.43,2.05,1.87Z"/>
  <path class="st20" d="M1039.25,407.32c2.69,6.06-2.24,14.18-7.52,18.06-18.07,13.28-.96-7.47-1.71-14.01,6.46,3.11,4.22-1.39,9.23-4.05Z"/>
  <path class="st25" d="M542.7,115.89c-2.02-5.77,2.03-6.77,2.73-11.83,12.49-1.43,13.25,11.02,4.44,13.08-2.7.63-4.63,0-7.18-1.25Z"/>
  <path class="st9" d="M1009.18,369.33c9.14-1.44,15.5,12.69,10.94,14.32-.9.32-15.89-8.79-16.06-9.65-.34-1.75,4.11-4.51,5.13-4.67Z"/>
  <g>
    <path class="st6" d="M341.75,493.88c1.04.61,3.28,1.74,3.42,1.87,5.43,4.95,6.42,23.26-4.1,17.75,3.48,13.24-21.89,23.58-20.16,5.92-16.28,10.08-12.68-20.46-.34-19.93,2.14.09,8.76,3.44,10.94.93.63-.73-1.45-1.87.34-2.8,2.71-1.41,10.47,1.05,6.49-5.6.52.2,2.74,1.47,3.42,1.87Z"/>
    <path class="st13" d="M338.33,492.01c3.98,6.66-3.78,4.2-6.49,5.6-1.79.93.29,2.07-.34,2.8-2.18,2.51-8.79-.84-10.94-.93-1.47-8.49,11.27-9.97,17.77-7.47Z"/>
  </g>
  <path class="st17" d="M135.68,304.57c1.93,1.97-1.57,5.81-1.71,7.78-1.49,20.45,24.8,31,42.03,18.99,4.49,2.45-12.65,6.7-14.35,6.85-20.59,1.79-37-16.66-25.97-33.63Z"/>
  <path class="st41" d="M339.7,424.13c-.23.95-.67,1.77-.68,1.87-8.51,2.48-17.64,2.28-26.31,3.74-1.59.27-15,4.92-14.7,2.8l5.13-3.42c-4.39,1.02-13.08-3.24-16.4-3.11-2.22.08-2.84,1.91-3.76,2.49-.16-.06-3.25-.67-3.42-.62l-.68-1.25c.57-.11,2.93-1.96,4.78-1.56.1-.16-2.96-1.91-3.42-2.18,4.23-1.27,7.9,2.29,11.96,3.11,14.71,2.99,33.49,3.35,47.5-1.87Z"/>
  <path class="st20" d="M1010.2,399.85c-1.89-.72-2.38-.29-4.1,0-4.57-8.84-22.59-3.1-26.66,3.42-4.21,6.76-1.45,14.47.34,21.48-6.64-8.51-6.46-21.65,3.42-28.02,8.49-5.48,21.21-5.58,27,3.11Z"/>
  <g>
    <path class="st1" d="M272.72,445.93c-1.24-5.74,5.25-14.29,10.25-17.44,7.2,2.94,6.86,23.22-5.81,21.17-1.45-.23-4.07-1.99-4.44-3.74Z"/>
    <path class="st6" d="M282.97,428.49c-5,3.15-11.49,11.7-10.25,17.44-9.22,8.09-19.67-2.27-10.25-9.34,2.61-1.96,8.52-2.92,11.96-4.36,1.67-.7,4.79-4.27,5.13-4.36.17-.05,3.26.56,3.42.62Z"/>
    <path class="st1" d="M278.87,426.62l.68,1.25c-.34.09-3.46,3.66-5.13,4.36-3.44,1.44-9.35,2.4-11.96,4.36-5.77-14.24,9.78-8.73,16.4-9.96Z"/>
  </g>
  <path class="st41" d="M364.99,479.55c-3.8,5.34-15.13,10.91-19.82,16.19-.14-.13-2.38-1.26-3.42-1.87,6.58-7.45,16.35-12.45,23.92-18.68,1.32,1.57.23,3.08-.68,4.36Z"/>
  <g>
    <path class="st17" d="M164.04,417.91c-1.78,1.41-2.73-1.33-3.08-1.25-.69.18.56,2.22-2.39,2.49-.09-5.91-3.4-11.77-3.42-17.75-.1-31.85,47.88-25.21,42.38-1.87-1.25,5.31-11.12,10.12-16.75,9.65-14.39-1.19-12.56-23.11.68-17.44,8.3,3.55-3.31,13.63-3.08,9.03,15.29-11.11-12.47-11.07-3.42,2.49,4.94,7.4,24.33,2.33,21.19-10.59-3.97-16.33-35.42-16.01-38.28,3.11-1.42,9.48,1.82,14.35,6.15,22.11Z"/>
    <path class="st11" d="M164.04,417.91c3.16,5.66,3.47,5.67,7.52,10.59-1.66,1.55-2.01,1.82-1.37,3.74-11.5,6.59-13.63,2.86-21.19-3.74l5.47-10.59c1.18-.09,3.6,1.29,4.1,1.25,2.96-.27,1.7-2.32,2.39-2.49.34-.09,1.29,2.65,3.08,1.25Z"/>
    <path class="st20" d="M154.47,417.91l-5.47,10.59c-1.86-1.62-3.99-.78-5.47-2.8,2.67-3.32,6.16-7.43,10.94-7.78Z"/>
  </g>
  <path class="st6" d="M545.43,104.06c-.7,5.06-4.75,6.06-2.73,11.83-7.83-3.84-5.48-10.89,2.73-11.83Z"/>
  <path class="st33" d="M589.17,508.82c.09.35,0,.85,0,1.25-.04,1.54-.66,1.18-.68,1.25-5.38-1.99-6.8-1.82-4.1-7.47,1.4.49,4.43,3.6,4.78,4.98Z"/>
  <path class="st33" d="M607.63,516.29c-4.82-.8-6.32-2.09-4.78-6.85.1-.31-.05-.85,0-1.25.21.07.52-.08.68,0,.15.08-.19,1.39,0,1.56,2.3,2.04,3.8,1.83,4.1,6.54Z"/>
  <path class="st32" d="M613.78,104.06c.05.4-.1.93,0,1.25l-19.14-1.56c5.52-1.73,14.2,1.33,19.14.31Z"/>
  <path class="st11" d="M602.84,508.2c-.05.4.1.93,0,1.25l-13.67.62c0-.4.09-.9,0-1.25,3.2-.1,11.03-1.56,13.67-.62Z"/>
  <g>
    <path class="st11" d="M449.74,163.84l3.42.62c-2.72,2.05-15.57,14.92-16.75,14.95-1.36.03-1.28-1.87-2.05-1.87s-6.16,6.74-11.28,8.72l-8.89-8.1c5.69-7.97,13.23-11.07,21.53-16.19l4.1,8.72c.75.27,8.6-5.88,9.91-6.85Z"/>
    <path class="st20" d="M423.09,186.26c-10.3,3.99-15.67,1.41-8.89-8.1l8.89,8.1Z"/>
    <path class="st41" d="M433,160.72c.56-.07,1.33-.16,1.71.31.13.3-5.23,3.16-6.15,3.11-.15-1.28,3.81-3.34,4.44-3.42Z"/>
  </g>
  <path class="st26" d="M615.15,114.02c-.26-.17-1.62.18-2.05,0h2.05Z"/>
  <g>
    <path class="st45" d="M712.89,462.12l-2.39,1.87,5.81,1.25c3.3,2.65,8.74,4.41,12.3,6.85-4.19.06-9.38,2.81-12.3,5.29.29,5.14,7-1.36,9.91-2.18,1.67-.47,5.31-1,7.18-1.25.66-.09,1.4.09,2.05,0,10.32,5.02,19.12,11.19,24.61,20.86,1.81,3.2,10.42,26.28,10.25,28.64-.37,5.32-21.8,2.24-26.31,1.56-13.29-2.01-30.99-8.5-41.69-16.19-13.19-9.47-15.44-17.75-9.57-32.38-8.1,2.87-9.46,14.92-20.16,14.95-.14-.21,0-.42-.68-1.25-.51-.62-1.19-3.85-2.39-3.74-11.39,14.21-29.79,21.51-48.87,22.42.08-.59.15-2.05,0-2.49,9.3,2.28,45.48-14.09,46.48-21.48.07-.49-1.35-.25-1.37-.31-.21-.76.58-2.31-.68-2.49,16.17-5.75,31.46-14.28,45.79-23.04.06.17,1.76,2.71,2.05,3.11Z"/>
    <path class="st17" d="M728.61,472.08c1.12-.02,4.03.92,4.78,1.87-1.87.25-5.51.78-7.18,1.25-2.91.82-9.62,7.32-9.91,2.18,2.92-2.48,8.11-5.23,12.3-5.29Z"/>
  </g>
  <g>
    <g>
      <path class="st17" d="M196.17,283.4c10.64,13.57,17.86,15.86,35.54,17.44,7.42.66,12.42,1.03,19.82,0,11.47-1.59,20.51-4.72,24.61-15.57.17.07,2.37-.49,3.76,0,.61.22.26,1.22.34,1.25-3.03,9.31-16.28,18.23-25.63,23.04-14.15,7.29-34.31,12.12-50.58,11.83-1.65-.03-15-.96-15.72-1.25-1.63-.64-2.62-10.49-.68-10.59,17.41,11.44,42.98,2.39,61.17-3.42-21.63,1-35.86-.65-50.58-15.57-1.87-1.9-3.3-5.42-4.78-7.16h2.73Z"/>
      <path class="st46" d="M243.67,218.01c5.6,3.63,2.37,10.98,1.03,15.88,3.55-1.13,17.09-.52,17.09,3.74,0,.48-6.49,6.76-7.18,7.16-4.1,2.41-9.18,3.06-13.67,1.25-.85-.34-10.4-8.39-10.59-9.03-2.23-7.46,5.51-16.97,13.33-18.99Z"/>
      <path class="st23" d="M251.53,300.84c-7.4,1.03-12.41.66-19.82,0l-11.62-7.16c-.85-3.79,6.19,2.1,8.2.62-3.34-1.68-9.13-8.51-8.2-11.83,1.66-5.96,6.06-.38,6.49-.31,1.25.19,5.42-.84,8.2,0,10.45,3.16,12.86,10.17,16.75,18.68Z"/>
      <path class="st41" d="M190.7,246.66c-7.06,14.42-4.12,24.52,5.47,36.74h-2.73c-2.04-2.4-5.51-4.24-6.83-5.92-1.18-1.49-5.7-11.31-6.49-11.52-5.04-1.31-20.21,3.13-23.92-7.47,4.41,3.62,3.47.16,7.86,0,2.09-.08,10.31,3.64,8.89-2.49,1.4.29,2.91-1.03,4.78,0,1.35,2.01,4.55,4.71,6.83,5.92-1.09-6.78,1.68-11.65,4.1-17.75,1.38,1.12,2.09-.11,2.05,2.49Z"/>
      <g>
        <path class="st6" d="M195.48,221.75c-1.52,2.07-.26,8.26-.68,10.9l3.76-3.42c1.59,5.98-3.11,10.88-5.81,15.88l7.52-.31c-3.36,1.56-5.65,2.27-9.57,1.87.04-2.6-.67-1.38-2.05-2.49-2.37-1.91-8.23-3.98-8.89-7.78-1.43-8.26,5.87-24.78,15.72-14.63Z"/>
        <path class="st12" d="M200.27,244.79l-7.52.31c2.7-5,7.4-9.9,5.81-15.88l-3.76,3.42c.42-2.63-.84-8.82.68-10.9,1.27-1.73,6.02-1.84,7.86-1.25,10.04,3.25,5.09,20.48-3.08,24.29Z"/>
      </g>
      <path class="st11" d="M177.71,256c-1.87-1.03-3.38.29-4.78,0-2-.42-6.9-3.46-9.57-3.11-.88-1.48-11-10.04-6.49-11.83,6.18-1.1,14.84,3.05,18.11,7.78,1.27,1.83,1.19,4.86,2.73,7.16Z"/>
      <path class="st20" d="M172.93,256c1.43,6.13-6.79,2.41-8.89,2.49,1.41-.74-.25-4.87-.68-5.6,2.67-.35,7.57,2.69,9.57,3.11Z"/>
    </g>
    <g>
      <path class="st11" d="M342.43,260.36c-1.97.19-.65-1.43-3.08-1.25-.95.07-19.39,6.49-13.67,7.47,11.03-4.31,1.67,4.98,1.03,9.96-2.02,2.86-12.13,14.4-12.64,15.57-.82,1.88,1.38.66,1.03,2.49-9.33-1.33-26.76-5.32-34.86-8.1-.08-.03.27-1.03-.34-1.25-1.39-.49-3.59.07-3.76,0-11.13-4.82.08-7.49,0-8.41-.11-1.24-2.77,1.62-.68-2.49,5.34-10.53,34.72-35.4,46.14-40.79,5.57-2.63,13.36-1.51,17.43-6.23,1.28,6.62,10.99,12.43,17.77,13.39-10.68,3.18-15.75,9.29-14.35,19.62Z"/>
      <path class="st11" d="M342.43,260.98c3.45,18,19.67,19.33,34.86,11.83-9.06,22.17-40.27,24.93-62.2,21.8.35-1.83-1.85-.61-1.03-2.49.51-1.17,10.63-12.7,12.64-15.57.04-.05.5,1.54,1.37.31,4.49-6.37,3.41-16,14.35-15.88Z"/>
      <path class="st11" d="M342.43,260.36c.03.2-.04.42,0,.62-10.94-.12-9.86,9.51-14.35,15.88-.87,1.23-1.33-.37-1.37-.31.64-4.99,10.01-14.27-1.03-9.96-5.72-.98,12.72-7.4,13.67-7.47,2.42-.18,1.11,1.43,3.08,1.25Z"/>
    </g>
  </g>
  <g>
    <path class="st41" d="M794.22,107.79c1.28,3.4,4.95,8.12,9.57,5.6.28,1.01.97,1.28,2.05,1.25,2.2,7.41.42,9.85,10.25,9.96v.62c-.5,0-9.2,2.49-9.57,2.8-.68.58-2.32,13.87-6.15,15.88-1.26.15-15.65,6.75-16.4,7.47-12.98,1.02-26.76-2.21-28.71-15.88-2.68-18.82,22.15-24.19,28.02-12.45,4.27,8.55-8.2,18.39-15.38,12.77,12.53,4.53,19.94-12.98,7.52-16.81s-19.8,10.18-16.75,19.62c6.16,19.04,44.25,10.92,42.38-11.83-1.36-16.52-27.46-29.13-44.09-27.71-10.74.92-15.74,6.84-23.58,11.21-2.93,1.63-4.82,3.43-6.15-1.87,19.56-12.93,49.43-19.55,66.98-.62Z"/>
    <path class="st41" d="M816.09,125.23v-.62c9.4-6.82,20.45-8.99,31.78-4.98,2.19,2.65-8.61,11.34-11.62,11.83-8.31,1.37-15.25-6.18-20.16-6.23Z"/>
    <g>
      <path class="st1" d="M805.84,114.64c-1.08.03-1.77-.24-2.05-1.25.17-.09.8.09.68-.62l4.1-16.19c5.98-2.47,11.17,3.27,10.25,8.41-.62,3.5-9.06,9.54-12.99,9.65Z"/>
      <path class="st1" d="M807.89,93.47c-.77,1.12-6.7,6.1-6.83,6.54-.11.38.56,6.82.68,7.78-2.6-.39-4.02-3.83-6.83-1.87-1.18-3.74-4.88-6.94-1.37-11.52,2.83-3.69,5.77-1.43,8.54-1.56.86-.04,2.84-3.5,5.81.62Z"/>
      <path class="st6" d="M808.57,96.58l-4.1,16.19c-2.3.87-2.47-2.97-2.73-4.98-.13-.97-.8-7.41-.68-7.78.13-.44,6.06-5.42,6.83-6.54.93,1.29.72,1.7.68,3.11Z"/>
      <path class="st6" d="M801.74,107.79c.26,2.01.44,5.85,2.73,4.98.11.71-.51.53-.68.62-4.62,2.51-8.29-2.2-9.57-5.6-.16-.42,1.02-.8.68-1.87,2.81-1.96,4.24,1.48,6.83,1.87Z"/>
    </g>
    <path class="st15" d="M783.97,151.38c-5.92,5.65-2.99,15.62-2.05,22.42-12.04-12.82-33.73-13.89-41.69,3.11l-4.78-.31c8.54-12.05,10.85-27.11,7.52-41.1-1.92-8.05-10.51-16.56-9.57-25.22,7.84-4.37,12.84-10.29,23.58-11.21,16.62-1.42,42.73,11.19,44.09,27.71,1.87,22.75-36.21,30.87-42.38,11.83-3.05-9.44,3.89-23.58,16.75-19.62s5.01,21.34-7.52,16.81c7.18,5.63,19.65-4.22,15.38-12.77-5.87-11.74-30.71-6.36-28.02,12.45,1.95,13.67,15.72,16.9,28.71,15.88Z"/>
  </g>
  <g>
    <path class="st6" d="M792.85,229.85c-.15.96-2.33,3.67-2.73,4.36-2.14,3.69-9.08,11.75-12.99,13.7-1.41.7-7.86,2.35-9.57,2.49s-5.18.22-6.83,0c-.21-.03-3.3-1.01-4.1-1.25-2.63-.76-5.1-3.59-7.52-3.74-1.62-2.74-3.89-4.61-6.15-6.85-1.15-3.75-2.89-5.37-2.73-9.96.07-1.95.65-3.81,1.37-5.6.04-.11,1.02-1.24,1.37-1.87.43-.8.82-1.77,1.37-2.49,1.55-2.05,1.23-2.36,1.37-2.49.16-.15,2.62-.82,4.1-1.87.54-.38.64-.6.68-.62,1.2-.78,3.76-2.59,4.78-3.11.78-.4,3.08-.96,4.1-1.25.13.08-.73,1.53,1.71,1.25.9-.11,10.4-4.67,9.23-6.85,5.82.69,13.88-.54,19.82-.93,1.07,1.74-5.47,3.73-6.83,4.98-.08.07.76,1.8.68,1.87-4.52,3.85-11.69,4.88-15.72,9.34l20.5-9.96c-3.39,7.52-9.58,13.21-17.09,17.44,9.56-1.51,14.14-12.07,20.16-18.37l-.34,4.67-6.83,13.08c3.79-1.9,4.23-7.06,6.49-10.27-.49,4.33,2.33,10.36,1.71,14.32Z"/>
    <path class="st12" d="M781.92,173.8c.21,1.5,2.48.25-.68,3.11-1.96-1.31-4.6-2.2-6.49-3.74,3.17,8.82,17.64,11.49,18.8,21.17-.39-.03-2.27.66-2.39.62-1.76-.5-7.92-7.14-9.57-8.72l2.73,6.23-7.86-2.8c1.94,2.27,14.57,5.44,15.38,6.54.97,1.32-.56,3.17-.34,4.98-10.42,1.03-19.83-1.21-29.05.62,2.93-.05,4.95,1.52,7.86,1.87,1.18,2.18-8.32,6.74-9.23,6.85-2.43.29-1.58-1.16-1.71-1.25-3.13-1.91-6-4.27-9.57-5.6-7.89-9.5-15.97-13.1-9.57-26.78,7.96-17,29.66-15.93,41.69-3.11Z"/>
    <path class="st1" d="M805.84,194.97c-.09.93,1.12,5.73,1.37,6.23,2.12,4.29,2.57,1.44,3.76,1.87.58.21.11,1.05.68,1.25.95.31,14.29,2.3,14.01,3.42l-10.94-1.25c1.55,1.95,6.95,2.45,6.49,5.29-2.07-.89-12.55-8.18-13.67-8.1-1.3.1-1.8,2.25-2.39,2.49-1.16.49-3.92,1.11-4.1,1.25-3.27,2.55.24,10.87-2.39,14.95-3.68-3.68,4.49-17.68-3.76-14.01l.68,20.55-2.73.93c.62-3.96-2.2-9.99-1.71-14.32-2.26,3.22-2.7,8.38-6.49,10.27l6.83-13.08.34-4.67c-6.02,6.3-10.6,16.86-20.16,18.37,7.51-4.22,13.69-9.91,17.09-17.44l-20.5,9.96c4.03-4.46,11.21-5.49,15.72-9.34.08-.07-.76-1.8-.68-1.87,1.36-1.25,7.91-3.24,6.83-4.98-5.94.39-14,1.63-19.82.93-2.91-.35-4.93-1.92-7.86-1.87,9.21-1.83,18.62.41,29.05-.62.42,3.54,2.57,2.66,5.13,4.98-1.15-5.8,5.42-2.58,6.49-5.29.87-2.19-2.71-4.81,1.37-6.54.46.21.86.53,1.37.62Z"/>
    <path class="st1" d="M793.54,194.35c1.34.11,2.75-.07,4.1,0,3.12.16,3.95-1.34,6.83,0-4.08,1.73-.5,4.35-1.37,6.54-1.07,2.71-7.64-.51-6.49,5.29-2.55-2.33-4.71-1.44-5.13-4.98-.21-1.82,1.31-3.67.34-4.98-.81-1.1-13.44-4.27-15.38-6.54l7.86,2.8-2.73-6.23c1.65,1.57,7.81,8.21,9.57,8.72.12.03,2-.66,2.39-.62Z"/>
    <path class="st13" d="M781.23,176.91c4.17,2.78,7.4,6.86,11.28,9.96l1.71-2.8c0,3.77,1.38,7.08,3.42,10.27-1.35-.07-2.76.11-4.1,0-1.16-9.68-15.62-12.36-18.8-21.17,1.9,1.53,4.53,2.43,6.49,3.74Z"/>
    <g>
      <path class="st14" d="M800.37,143.91c21.56-2.49,38.26,20.12,22.9,36.12,10.82-3.14,22.26-7.37,32.47-.62.7.46,3.96,5.25,5.47,5.6,11.2,24.43-10.26,38.69-35.54,30.82,15.84,12.1,21.36,33.14-2.39,40.79-22.5,7.25-31.34-2.56-33.15-22.42.4-.69,2.58-3.4,2.73-4.36l2.73-.93-.68-20.55c8.24-3.67.08,10.33,3.76,14.01,2.64-4.07-.88-12.4,2.39-14.95,1.5,1.86,2.69,4.04,3.42,6.23.06,1.62.66,1.77.68,1.87.08.26-.12,4.89,0,5.29.08.26,2.4,4.31,3.08,4.67.45-3.55-2.35-6.75-3.08-9.96-.21-.68-.49-1.29-.68-1.87-.05-1.27-.31-2.28,1.03-3.11,3.29.64,4.12,1.35,7.86,4.05l-8.2-8.41c.59-.25,1.09-2.39,2.39-2.49,1.12-.09,11.6,7.2,13.67,8.1.45-2.85-4.95-3.34-6.49-5.29l10.94,1.25c.28-1.13-13.06-3.11-14.01-3.42-.58-.19-.1-1.03-.68-1.25-1.19-.43-1.63,2.43-3.76-1.87l10.94-1.56c-2.96-2.04-7.19-1.07-10.94-2.49l5.13-6.54-6.49,4.36c-.51-.09-.9-.41-1.37-.62-2.89-1.34-3.71.16-6.83,0-2.04-3.2-3.41-6.5-3.42-10.27l-1.71,2.8c-3.88-3.1-7.11-7.18-11.28-9.96,3.17-2.86.89-1.61.68-3.11-.94-6.8-3.86-16.77,2.05-22.42.76-.72,15.14-7.33,16.4-7.47Z"/>
      <g>
        <path class="st28" d="M807.21,201.2c-.25-.5-1.46-5.3-1.37-6.23l6.49-4.36-5.13,6.54c3.75,1.42,7.97.45,10.94,2.49l-10.94,1.56Z"/>
        <path class="st0" d="M804.47,213.65c-.73-2.19-1.92-4.37-3.42-6.23.18-.14,2.94-.76,4.1-1.25l8.2,8.41c-3.74-2.7-4.57-3.41-7.86-4.05-1.34.83-1.07,1.85-1.03,3.11Z"/>
        <path class="st1" d="M809.6,214.28c1.31.69,7.93,9.79,6.15,10.59l-6.15-10.59Z"/>
        <path class="st0" d="M805.16,215.52c.73,3.21,3.53,6.41,3.08,9.96-.68-.36-3-4.41-3.08-4.67-.12-.4.08-5.03,0-5.29Z"/>
        <path class="st1" d="M793.88,171.93l-.68,9.96c-.66-3.77-1.39-6.59.68-9.96Z"/>
        <path class="st28" d="M825.32,219.26c.51-.05,3.87,3.37,1.37,3.74s-3.76-3.52-1.37-3.74Z"/>
        <path class="st1" d="M828.05,189.37c.1-.01,1.24.9,1.71.93.14,1.08-6.03,2.91-7.52,2.49,1.64-.11,5.47-3.38,5.81-3.42Z"/>
        <path class="st28" d="M813.7,175.05c2.43,0-1.56,3.65-2.05,3.74-1.64.29-.68-3.74,2.05-3.74Z"/>
        <path class="st28" d="M800.71,234.83c1.34,0,1.37,3.73,0,3.74s-1.37-3.73,0-3.74Z"/>
        <path class="st0" d="M805.16,215.52c-.02-.1-.62-.25-.68-1.87.19.58.48,1.18.68,1.87Z"/>
      </g>
    </g>
    <path class="st15" d="M759.36,209.3c-1.02.29-3.33.85-4.1,1.25-2.23-1.98-3.63-4.64-5.47-6.85,3.57,1.34,6.44,3.69,9.57,5.6Z"/>
  </g>
  <g>
    <path class="st17" d="M681.45,128.97c-.03-1.52.37-4.46-.34-5.6-2.86-4.64-40.49-16.1-48.19-15.57.02-.13-.53-1.81-.68-2.49,17.89,2.78,34.97,7.73,50.92,15.57,2.07-10.25,7.12-19.4,13.33-28.02l17.77,51.37c-1.15,1.73-31.92-10.68-32.81-15.26Z"/>
    <g>
      <path class="st2" d="M727.24,108.42c1.33,5.29,3.23,3.5,6.15,1.87-.95,8.66,7.65,17.17,9.57,25.22,3.33,13.99,1.02,29.04-7.52,41.1l4.78.31c-6.41,13.68,1.68,17.28,9.57,26.78,1.84,2.21,3.24,4.87,5.47,6.85-1.03.53-3.58,2.33-4.78,3.11-30.42-45.97-80.09-77.98-138.06-88.43.11-.06,1.18-1.5,1.37-1.87.15,0,2.58-1.25,2.73-1.25,5.94.12,26.03,6.46,32.47,8.72,10.63,3.73,21.03,8.93,30.76,14.32.93-.11,1.74-14.73,1.71-16.19.89,4.58,31.66,16.99,32.81,15.26l-17.77-51.37c.59-.82,2.66-5.46,3.76-5.6l27,21.17Z"/>
      <path class="st20" d="M699.56,156.99l11.28,7.78c-1.36,1.56-1.04.54-2.05,0-2.32-1.24-7.04-5.86-9.23-7.78Z"/>
    </g>
  </g>
  <g>
    <g>
      <path class="st11" d="M859.15,320.76c-.7,1.4-1.2,4.22-2.05,5.6-6,9.85-14.95,20.09-27,24.29-18.84,6.56-24.92-1.03-39.98.62l32.81-28.33-3.42-7.47v-11.21l5.13,17.12,44.09-53.55c.14,0,1.48-1.47,2.73-.31,1.2,1.91-4.55,39.52-6.15,43.59-1.08,2.75-4.52,6.39-6.15,9.65Z"/>
      <g>
        <path class="st17" d="M868.72,267.83l-44.09,53.55-5.13-17.12v11.21l3.42,7.47-32.81,28.33c-6.95.76-9.1,4.85-8.2,11.21-3.41,1.98-6.31,5.26-9.57,7.47,3.86-15.98,8.06-32.07,8.2-48.57.55-.57,3.34-2,3.42-2.18,1.9-4.09,2.33-14.31,4.1-18.37,3.81-8.73,20.67-20.01,30.42-23.66,13.23-4.97,27.92-5.16,41.01-10.59,2.54,1.95-1.43.38-1.37,2.49,3.65.01,6.94-1.08,10.59-1.25Z"/>
        <path class="st11" d="M821.22,280.91c2.26.13.05,7.6-.68,8.72-1.23-1.23-.12-8.77.68-8.72Z"/>
      </g>
    </g>
    <g>
      <path class="st12" d="M736.81,425.38c-.32-.72-.46-1.08-.68-1.87-.15-.54.15-1.32,0-1.87-.48-1.78-1.44-.93-1.37-2.49,1.47-.18,3.59.07,3.76,0,3.81-1.47,7.31-9.48,11.96-8.41l-13.67,14.63Z"/>
      <g>
        <path class="st6" d="M749.11,336.33c2.09.1,4.15.78,6.15,1.25,1.44.34,2.75.68,4.1,1.25.65.27,1.92.56,2.05.62.15.08,2.48,1.67,2.73,1.87,8.53,6.71,10.04,18.51,6.83,28.02-.55-1.08-1.47-3.86-2.73-2.8-.8,4.52-3.66,8.37-5.47,12.45-.13.3.04,5.54-2.73,5.29.33-2.2.94-4.35,1.37-6.54-.88-1.03-1.92.85-2.05,1.25-1.62,5.05-.29,13.54-3.42,18.68l-4.44-29.58,2.73,29.27c-6.47-6.58-11.41-13.92-13.33-22.73-4.52,4.45,13.83,23.85,11.96,24.6l-2.73-2.49c3.21,7.72-5.95,1.65-9.57-.62-.37-.23-8.94-7.89-5.13-2.18,1.88,2.81,10.93,4.77,12.64,8.41-9.76-1.48-19.79-7.33-29.73-4.67l30.07,5.6c.88,1.02-.03,2.6-1.03,2.8-7.02,1.44-24.14-3.39-32.47-.93,9.52,2.11,24.33-.5,33.15,1.56.53.12,2.49,1.74.68,2.49-8.94-2.01-18.59,2.47-25.63,7.16,7.76-2.66,14.23-6.9,22.9-7.16l.68,1.25c-4.18,4.68-10.56,6.48-16.4,8.72.72,1.7,3.63.1,4.44,0-.08,1.56.88.71,1.37,2.49-4.07-1.81-4.07,3.68,0,1.87.22.78.37,1.15.68,1.87.22.5-1.14.82-.34,1.25,7.2-2.73,9.63-10.89,15.04-15.57.8.37-1.81,6.17-2.39,7.16-1.03,1.75-14.73,15.9-13.33,16.5l17.77-22.42-11.96,32.07c6.87-5.79,6.81-16.83,10.59-24.6.78,4.13,2.43,9.25,2.39,13.39-.01,1.24-3.32,5.42-1.03,6.54,5.75-8.34-4.02-19.97,2.39-27.71l.34,15.88.34-14.63c1.24-1.84,2.27-.19,2.73-.31.1,4.69,2.6,10.51,4.78,14.95-8.11,1.44-1.98,9.24,2.05,3.11.78,1.48.36,2.75,1.71,3.74-.77-7.07-5.74-14.14-5.81-21.8,11.57,2.64,21.78,8.91,30.42,16.19l-4.1-4.98c-7.66-5.73-16.8-8.85-25.63-12.77,6.34-1.45,11.54,3.38,17.43,4.67-4.01-3.73-10.73-5.05-16.06-6.54,8.33-2.94,16.18.44,24.26,1.56l.68-1.25-2.39-1.87c.6-3.31,9.2-1.24,10.94,0-.5.24-1.06.82-2.05.93.94,1.27,2.02.92,3.42.93,11.69,3.71,27.4,13.99,25.97,26.78-.19,1.74-1.32,3.4-2.05,4.98-3.53,7.7-16.12,19.95-25.63,21.17-14.76,1.89-21.62-6.42-30.07-15.57,1.14,13.42-11.09,25.59-25.29,27.4-2.3.29-4.11-.97-6.49-.62-.65.09-1.39-.09-2.05,0-.76-.95-3.66-1.88-4.78-1.87-3.56-2.44-9-4.2-12.3-6.85-1.18-.95-2.54-1.88-3.42-3.11-.29-.41-1.99-2.94-2.05-3.11-.18-.54-.69-5.33-.68-6.23,0-.7.51-2.74.68-3.74.46-2.59,1.55-5.12,2.73-7.47,2.12-4.21,5.94-7.58,8.2-11.83.41-.77,2.89-1.32.34-1.87-5.79,2.3-16.09,3.56-22.21,2.49-.2-.03-2.17-1.38-3.42-1.87-.47-.18-.93-.4-1.37-.62-.53-.26-3.77-2.22-4.1-2.49-.92-.76-1.95-2.19-2.73-3.11-.98-1.16-2.64-2.34-2.73-2.49-14.89-25.17,11.25-50.93,40.33-37.67-15.96-15.58-13.43-38.31,10.94-44.52,1.03-.26,3.51-.45,4.78-.62.96-.13,3.24-.61,3.42-.62,1.33-.06,2.77-.06,4.1,0Z"/>
        <g>
          <path class="st15" d="M716.3,465.23l-5.81-1.25,2.39-1.87c.88,1.23,2.23,2.16,3.42,3.11Z"/>
          <g>
            <path class="st47" d="M760.05,384.28c-.66,4.44-1.89,8.87-2.05,13.39l3.08-10.27-1.03,11.52,2.39.93,34.17-15.57-34.52,17.12c1.78,4.52,7.08,1.36,11.28,1.56-3.29,3.18,7.36,1.42,9.23,4.05-.9-.42-24.97-3.18-18.11.93.93.56,19.06-.89,22.21,0l2.39,1.87-.68,1.25c-8.09-1.12-15.93-4.5-24.26-1.56,5.33,1.49,12.05,2.81,16.06,6.54-5.89-1.29-11.09-6.12-17.43-4.67,8.83,3.91,17.98,7.03,25.63,12.77l4.1,4.98c-8.63-7.28-18.85-13.55-30.42-16.19-.07-.02.24-1.15-.34-1.25-.14-.02-2.26,1.21-2.39,1.25-.46.12-1.5-1.53-2.73.31l-.34,14.63-.34-15.88c-6.41,7.74,3.36,19.37-2.39,27.71-2.29-1.12,1.01-5.29,1.03-6.54.04-4.14-1.61-9.26-2.39-13.39-3.78,7.77-3.72,18.81-10.59,24.6l11.96-32.07-17.77,22.42c-1.4-.6,12.3-14.76,13.33-16.5.59-.99,3.19-6.79,2.39-7.16-5.41,4.68-7.84,12.84-15.04,15.57-.8-.43.56-.75.34-1.25l13.67-14.63c-4.65-1.08-8.15,6.94-11.96,8.41-.17.07-2.29-.18-3.76,0-.81.1-3.73,1.7-4.44,0,5.85-2.24,12.22-4.04,16.4-8.72l-.68-1.25c-8.66.26-15.14,4.5-22.9,7.16,7.04-4.69,16.69-9.17,25.63-7.16,1.8-.75-.16-2.37-.68-2.49-8.82-2.06-23.63.55-33.15-1.56,8.32-2.45,25.45,2.38,32.47.93.99-.2,1.91-1.78,1.03-2.8l-30.07-5.6c9.95-2.66,19.97,3.19,29.73,4.67-1.71-3.64-10.77-5.59-12.64-8.41-3.81-5.71,4.76,1.95,5.13,2.18,3.62,2.27,12.78,8.34,9.57.62l2.73,2.49c1.87-.74-16.48-20.15-11.96-24.6,1.92,8.8,6.85,16.15,13.33,22.73l-2.73-29.27,4.44,29.58c3.13-5.14,1.8-13.63,3.42-18.68.13-.4,1.17-2.27,2.05-1.25-.43,2.19-1.04,4.34-1.37,6.54Z"/>
            <path class="st31" d="M762.1,412.92c.07,7.66,5.04,14.72,5.81,21.8-1.34-.99-.93-2.25-1.71-3.74-.56-1.07-1.67-2.35-2.05-3.11-2.19-4.43-4.68-10.26-4.78-14.95.13-.04,2.26-1.27,2.39-1.25.58.1.27,1.23.34,1.25Z"/>
            <path class="st28" d="M764.15,427.87c.38.76,1.49,2.04,2.05,3.11-4.03,6.12-10.16-1.67-2.05-3.11Z"/>
            <polygon class="st3" points="765.86 414.79 772.35 420.71 778.84 431.61 765.86 414.79"/>
            <path class="st13" d="M774.74,443.44c.37,2.24,4.86,5.64,1.37,6.85-2.7.93-3.78-5.91-1.37-6.85Z"/>
            <path class="st28" d="M780.21,431.61c1.07-.17,4.68,4.86,2.05,5.6-2.43.69-4.63-5.19-2.05-5.6Z"/>
            <path class="st4" d="M734.42,384.9c2.44.01,4.96,2,5.81,4.05-.94,1.55-6.44-2.25-5.81-4.05Z"/>
            <path class="st13" d="M761.07,443.44c2.38.54.06,4.41,0,5.6-2.45-.48-2.06-6.07,0-5.6Z"/>
            <path class="st28" d="M736.12,421.64c.15.55-.15,1.33,0,1.87-4.07,1.81-4.07-3.68,0-1.87Z"/>
            <path class="st4" d="M786.36,413.55c.23-.04,3.75,1.23,4.44,1.56-1.9.75-3.86.33-5.47-.62.36-.21.78-.89,1.03-.93Z"/>
          </g>
        </g>
      </g>
      <g>
        <path class="st12" d="M808.57,405.45c-3.19,1.14-8.03,1.11-10.94,2.49-1.73-1.24-10.33-3.31-10.94,0-3.15-.89-21.29.56-22.21,0-6.86-4.11,17.21-1.35,18.11-.93-1.87-2.63-12.52-.87-9.23-4.05-4.2-.19-9.5,2.96-11.28-1.56l34.52-17.12-34.17,15.57-2.39-.93,1.03-11.52-3.08,10.27c.16-4.52,1.39-8.94,2.05-13.39,2.78.25,2.6-4.99,2.73-5.29,1.81-4.08,4.67-7.94,5.47-12.45,1.27-1.06,2.18,1.72,2.73,2.8.46.9-1.09,1.53-.34,1.87,1.07.37,1.5-1.1,1.71-1.25,3.26-2.21,6.16-5.49,9.57-7.47,37.08-21.55,66.27,30.71,26.66,42.97Z"/>
        <path class="st8" d="M782.26,381.17l-9.57,8.1-10.59,9.03c6.03-6.18,12.12-12.96,20.16-17.12Z"/>
        <path class="st28" d="M792.51,397.36c12.06,2.87-14.08,3.73-17.43,5.29-.61-2.05,17.39-3.2,17.43-5.29Z"/>
        <path class="st3" d="M767.91,380.54l-5.47,12.45c-.52-4.58,2.8-8.88,5.47-12.45Z"/>
        <path class="st28" d="M774.74,374.94c2.62.18-.19,3.79-2.05,3.11-1.03-.84,1.85-3.13,2.05-3.11Z"/>
      </g>
    </g>
  </g>
  <g>
    <path class="st11" d="M317.15,168.82c4.09.92,2.4.66,5.47,1.87,14.81,5.82,27.27,17.15,34.17,30.51-.22.06-3.78,1.69-4.1,1.87-6.65-12.4-13.34,1.22-22.21,3.11-5.44,1.16-11.98.15-16.06-3.42,1.98-1.19,10.13-10.04,11.28-10.27,1.63-.33,18.28,1.65,18.8.93-12.31-10.99-23.58-25.05-43.06-20.86-.25-.84-.63-.57-.68-.62-.06-1.16,4.42-4.91,4.78-4.98,1.62-.32,9.47,1.39,11.62,1.87Z"/>
    <path class="st1" d="M332.18,142.67c.04-.96-.94-.48-1.37-.62-2.84-.97-.57-2.22-1.37-4.05-.42-.96-2.63-3.73-2.73-4.36-1.27-7.64,5.93-26.69,16.75-20.86,4.86,2.62,5.62,18.96,3.76,23.35s-10.5,4.17-15.04,6.54Z"/>
    <path class="st20" d="M330.82,142.04c.43.15,1.41-.34,1.37.62-11.48,5.99-10.42,17.34-9.57,28.02-3.06-1.2-1.38-.95-5.47-1.87-2.6-6.35-.13-10.71,2.73-16.5,1.73-3.5,7.93-6.08,4.1-10.59,2.67,1.76,4.14,4.55,6.83.31Z"/>
    <path class="st5" d="M305.53,166.95c-.37.07-4.84,3.82-4.78,4.98-1.13-.99-2.44.57-2.73-.31-.33-.99,2.04-2.12,2.05-2.49,0-.42-1.16-7.32-1.37-8.41,4.46-2.01,3.25,4.35,6.83,6.23Z"/>
    <g>
      <g>
        <path class="st6" d="M298.69,160.72c.21,1.09,1.38,7.98,1.37,8.41,0,.37-2.38,1.5-2.05,2.49.3.88,1.61-.68,2.73.31.06.05.44-.22.68.62,1.95,6.62-15.75,28.39-21.53,30.51-1.73.63-13.69,1.08-15.04.62-4.84-1.64,2.91-8.06,2.39-10.9-10.39.89-13.69-2.67-11.62-11.83,1.63-7.19,8.09-9.81,15.04-12.14,3.02-1.02,7.5-2.69,10.59-3.11,3.37-.46,16.45,1.8,11.62-1.87l4.44,1.56-3.42-18.37c1.21,1.6,4.36,11.45,4.78,13.7Z"/>
        <path class="st13" d="M291.51,169.44c2.02-.02,2.49.09,3.76,1.56-7.38,3.96-15.33,7.31-22.56,11.83,1.94-3.15,6.69-4.67,9.57-6.85.24-.18-.68-1.96,1.03-3.42.41-.35,7.68-3.11,8.2-3.11Z"/>
      </g>
      <g>
        <path class="st12" d="M293.91,147.02l3.42,18.37-4.44-1.56c4.84,3.67-8.25,1.41-11.62,1.87-3.1.42-7.57,2.1-10.59,3.11-12.13-2.02-24.53-18.97-6.15-22.11l-5.47-4.36c5.59-8.6,30.31-1.35,34.86,4.67Z"/>
        <path class="st1" d="M277.16,142.04c1.66,0,7.18,3.35,4.78,5.6-1.19-1.33-9.6-2.43-9.91-2.8-1.69-2.03,3.68-2.81,5.13-2.8Z"/>
      </g>
    </g>
  </g>
  <g>
    <path class="st6" d="M392.33,135.82l1.71,1.87c-6.8.34-14.44,3.4-19.14,8.1,6.43-3.64,13.16-6.73,20.85-7.47-1.51,4.44-12.11,8.38-14.7,14.32,6.14-2.67,12.2-14.55,19.48-11.21-2,1.48-.68,14.12-2.73,16.81-7.13,3.19-7.07,12.33-16.75,10.59-1.44-.26-15.81-8.8-16.75-10.27-4.06-6.35-3.3-12.92,1.37-18.37.76,1.92,1.76.97,3.08.62,8.43-2.25,14.7-3.83,23.58-4.98Z"/>
    <path class="st6" d="M397.8,116.51c.86,2.55,1.95,11.84,4.44,11.83l1.71-.93c-.99-.88-2.82-14.41.68-11.83-2,18.36,3.83-2.27,9.57-4.98-.24,1.06-4.27,5.9-4.1,6.23.9,1.69,3.28-1.98,3.42,0-3.08,2.81-11.91,10.1-4.78,11.52-3.53-.08-8.75,1.94-9.23,1.87-3.07-.47-10.3-8.4-14.35-8.72.94,2.61,13.14,8.11,13.33,9.65.05.41-3.24,4.09-3.42,4.67-1.04-.09-1.7-.13-2.73,0-8.88,1.15-15.15,2.73-23.58,4.98-1.32.35-2.31,1.3-3.08-.62,3.13-3.65,6.52-5.83,11.62-6.54-5.62-3.6-10.57-5.95-8.89-13.08.22-.91,11.8-14.11,12.64-14.63,3.69-2.3,6.78-2.58,10.94-.62,6.39,3,3.27,7.39,4.44,10.9.18.54,1.35.25,1.37.31Z"/>
    <path class="st6" d="M409.42,138.31c2.06-.06,6.96,2.93,8.89,4.05-1.9,1.37-6.14-2.87-6.49-2.8-1.05.2-2.14,3.64-1.71,4.67,1.93,4.61,11.66,7.48,14.35,9.65.66.53,3.3,4.07,3.42,4.67,2.88,14.77-33.44,15.8-30.07-.31,2.05-2.7.73-15.34,2.73-16.81.69-.51,4.06-1.17,4.78.31.25,6.03,2.31,12.86,6.49,17.75-1.64-6.33-6.89-11,3.08-4.05-2.33-2.49-13.81-16.87-5.47-17.12Z"/>
    <path class="st13" d="M408.73,128.34c.59.01,1.67-1.35,2.73-.31l-2.05,10.27c-8.34.25,3.13,14.63,5.47,17.12-9.97-6.95-4.71-2.28-3.08,4.05-4.18-4.89-6.24-11.72-6.49-17.75-.73-1.48-4.1-.82-4.78-.31-7.28-3.34-13.34,8.54-19.48,11.21,2.58-5.95,13.19-9.88,14.7-14.32.34-1-1-1.46-.68-2.49.18-.58,3.47-4.26,3.42-4.67-.19-1.54-12.39-7.04-13.33-9.65,4.05.32,11.29,8.25,14.35,8.72.48.07,5.7-1.94,9.23-1.87Z"/>
    <g>
      <path class="st12" d="M424.45,153.87c-2.7-2.17-12.42-5.04-14.35-9.65-.43-1.03.66-4.47,1.71-4.67.35-.07,4.59,4.18,6.49,2.8-1.92-1.11-6.82-4.11-8.89-4.05l2.05-10.27c-1.06-1.04-2.15.32-2.73.31-7.12-1.42,1.71-8.71,4.78-11.52-.14-1.98-2.52,1.69-3.42,0-.17-.33,3.86-5.17,4.1-6.23-5.74,2.71-11.57,23.34-9.57,4.98-3.51-2.58-1.67,10.95-.68,11.83l-1.71.93c-2.49,0-3.58-9.29-4.44-11.83-1.19-10.04,8.04-24.96,20.85-18.06.42.23,7.15,4.69,7.52,4.98,6.84,5.35,5.67,11.76.34,17.75,17.01-4.66,21.53,9.81,2.73,11.83,3.86,2.36,12.4.24,14.35,4.36.23.49.88,7.49.68,8.1-1.51,4.6-15.85,4.96-20.16,4.67l.34,3.74Z"/>
      <path class="st38" d="M424.11,130.83l3.08.31c-1.1,2.03-4.15.18-3.08-.31Z"/>
    </g>
    <path class="st1" d="M395.06,135.82c-.32,1.03,1.02,1.49.68,2.49-7.68.74-14.41,3.84-20.85,7.47,4.69-4.7,12.33-7.76,19.14-8.1l-1.71-1.87c1.03-.13,1.69-.09,2.73,0Z"/>
  </g>
  <g>
    <g>
      <path class="st35" d="M387.54,369.96c1.31-.69,2.79-1.17,4.1-1.87,1.03-.55,1.28-1.21,1.37-1.25,1.27-.57,4.66-2.29,5.47-2.49.85-.22,5.97-.72,6.83-.62.25.03,4.56,1.16,4.78,1.25,1.02.4,5.3,3.52,6.15,4.36,4.69,4.59,4.2,8.63,6.83,13.08-1.39,1.55-1.14,4.55-2.05,6.23-.14.26-1.04,1.42-1.37,1.87-.16.22-3.87,3.58-4.1,3.74-.93.61-2.4,1.35-3.42,1.87-1.61.82-9.2,1.95-9.57,3.42,1.19.35,1.26,2.1,1.37,2.18-3.59-2.88-1.07-6.08-3.76-6.85-.69-.19-12.41-.01-14.35,0-.23,0-3.62,2.03-4.1,1.87-6.86-2.36,3.11-4.84,3.08-5.29-4.71-1.87-1.37-.7-1.03-3.42l-2.73.62c.74-3.84-.7.48-2.39-1.56l.34-4.05c-.28,6.6-9.91,11.55-9.57,2.49-1.12,2.19.23,7.34-4.44,4.36-6.54-5.84-26.8-11.45-35.54-6.85l-1.37-.62c7.29-6.93,13.63-7.36,22.9-2.49-2.98-9.01-8-16.54,2.73-23.04,15.39-9.31,31.53-.95,32.81,14.95.24.01.74-1.72,1.03-1.87Z"/>
      <path class="st6" d="M403.95,401.71c1.17.93,2.51,1.74,4.1,1.87,3.02,2.73,7.39,6.24,8.89,9.96,3.61,8.98-3.23,16.69-11.62,21.17-13.63,7.27-19.21-.16-26.66-9.96.18-6.85-4.89-11.19-5.81-17.44l-1.37,4.36-2.05-4.98c-1.01.08-1.45,7.29-1.71,9.03-.08.52,2.17,1.32-2.73,3.74l2.73-10.59-4.1.62c.75-.88,6.23-5.65,3.76-6.54-.1-.04-1.29,1.29-1.37,1.25-.95-.58.6-2.32-1.37-2.49-.75-.07-10.58,5.73-13.33,6.23-1.09.2-2.58-.14-3.76,0l.68-1.87,15.04-4.98c-1.61-4.16,2.55-.95,2.39-5.6.86.36,2.58,9.95,9.91,6.85,4.57-1.93,1.86-7.08,2.39-10.27-1.76-2.24-1.35,1.15-1.71.93-.83-.51.14-2-.68-2.49-1.57-.94-6.34,3.22-8.54,3.74,1.58-1.85-1.65-2.13-2.73-3.42-.61-.73.73-.89.68-.93,4.67,2.98,3.32-2.17,4.44-4.36-.34,9.06,9.29,4.11,9.57-2.49l-.34,4.05c1.69,2.04,3.13-2.28,2.39,1.56l2.73-.62c-.34,2.72-3.68,1.55,1.03,3.42.03.46-9.93,2.93-3.08,5.29.48.17,3.87-1.87,4.1-1.87,1.94-.01,13.67-.19,14.35,0,2.69.77.17,3.97,3.76,6.85Z"/>
      <path class="st6" d="M378.66,424.76c-.73,28.22-41.93,21.11-39.64,1.25.01-.1.45-.92.68-1.87.08-.31,2.49-5.25,2.73-5.6.92-1.34,2.3-2.51,3.42-3.74,2.08-2.29,8.94-4.56,5.47-6.85,2.75-.5,12.58-6.29,13.33-6.23,1.97.17.41,1.91,1.37,2.49.08.05,1.27-1.28,1.37-1.25,2.47.89-3.01,5.66-3.76,6.54l4.1-.62-2.73,10.59c4.9-2.42,2.65-3.21,2.73-3.74.26-1.74.7-8.95,1.71-9.03l2.05,4.98,1.37-4.36c.92,6.25,5.99,10.59,5.81,17.44Z"/>
      <path class="st12" d="M329.45,383.03c-13.24,6.97,8.34,7.11,11.28,8.1,2.7.9,1.75,2.95,4.78,3.74,2.97.76,11.33.4,14.7.62,1.31.09,4.8-.28,5.47,0,.16,4.65-4,1.44-2.39,5.6l-15.04,4.98-.68,1.87c1.18-.14,2.67.2,3.76,0,3.47,2.29-3.39,4.56-5.47,6.85l1.03-2.49c-7.87,2.48-19.69-1-22.9-8.41-3.04-7.02-1.48-16.18,4.1-21.48l1.37.62Z"/>
      <path class="st6" d="M364.99,389.88s-1.29.21-.68.93c1.09,1.3,4.31,1.58,2.73,3.42-4.22.99-6.03-1.38-6.83,1.25-3.36-.23-11.72.14-14.7-.62-3.04-.78-2.08-2.83-4.78-3.74-2.94-.98-24.51-1.13-11.28-8.1,8.74-4.6,29,1.01,35.54,6.85Z"/>
      <path class="st39" d="M365.67,395.49c-.67-.28-4.16.09-5.47,0,.81-2.62,2.61-.25,6.83-1.25,2.2-.52,6.97-4.67,8.54-3.74.83.49-.14,1.98.68,2.49.36.22-.06-3.17,1.71-.93-.53,3.2,2.17,8.34-2.39,10.27-7.33,3.1-9.05-6.49-9.91-6.85Z"/>
      <path class="st33" d="M408.05,403.58c-1.59-.13-2.94-.93-4.1-1.87.19.15,1.58-.4,4.1,1.87Z"/>
    </g>
    <g>
      <path class="st6" d="M237.18,354.39c.42,2.86,5.89,8.81,9.57,8.72-2.81,3.46-5.99.75-3.42,8.1-5.35.54-9.22,1.5-14.01,3.74,2.21-2.96,7.64-4.56,11.28-4.67-1.27-3.58-5.28-2.64-8.2-2.18-1.04-3.1-6.67-2.45-8.2-5.29-1.9-3.51.56-9.7,5.13-10.27,3.76-.47,4.86,2.31,7.86,1.87Z"/>
      <path class="st12" d="M246.75,361.86c-.14.23.14,1.08,0,1.25-3.67.09-9.15-5.86-9.57-8.72-.34-2.32,1.38-7.8,2.73-9.96v4.05c1.35,1.7,3.28-.13,3.42,0,.87.81,3.4,11.4,3.42,13.39Z"/>
      <g>
        <path class="st12" d="M282.97,370.58c-5.27,4.39-7.05,2.15-13.33,2.49-.41.02-4.03,1.21-4.44,1.25-.69.06-4.41-2.08-4.1.62-6.49-2.14-1.61,1.91-4.44,2.49-1.36.28-.95-1.34-1.37-1.25-4.26.99.85,8.89,0,11.83-1.94,1.04-3.18-9.31-3.42-10.59-2.42-1.15-2.47,5.94-2.73,6.23s-6.19,1.73-6.49,1.87c-.06.03-.03-1.02-1.03-.62-.49.19-3.37,6.11-7.52,6.85-20.11,3.57-24.8-20.03-1.71-23.66,2.93-.46,6.93-1.4,8.2,2.18-3.63.11-9.07,1.71-11.28,4.67,4.8-2.23,8.66-3.2,14.01-3.74.01.04.44-.24.68.62l-12.3,14.01,13.67-12.14c1.16,4.68-2.84,4.97-1.03,8.72.9-1.46,2.17-6.89,3.08-7.78.86-.85,3.78-1.01,4.44-1.56.87-.72,1.79-4.23,2.05-4.36.92-.46,12.64-.38,12.64-2.18-2.28-2.99-5.47.91-5.81.93-6.69.56-12.13-1.93-5.81-7.16l-6.49,3.42.68-6.85c-2.25,1.26-.91,2.56-2.39,4.98-.01-1.99-2.55-12.58-3.42-13.39-.14-.13-2.06,1.7-3.42,0v-4.05c8.83-14.14,32.13-1.4,23.92,12.14,10.32-2.34,24.39,2.61,19.14,14.01Z"/>
        <path class="st3" d="M245.38,373.69c-.21-.84-1.34-1.76-1.37-1.87-.25-.86-.67-.58-.68-.62-2.57-7.34.61-4.63,3.42-8.1.14-.17-.14-1.02,0-1.25,1.49-2.42.14-3.73,2.39-4.98l-.68,6.85,6.49-3.42c-6.32,5.23-.88,7.72,5.81,7.16.34-.03,3.53-3.92,5.81-.93,0,1.8-11.72,1.72-12.64,2.18-.26.13-1.18,3.64-2.05,4.36-.66.55-3.58.71-4.44,1.56-.91.9-2.18,6.32-3.08,7.78-1.81-3.74,2.19-4.04,1.03-8.72Z"/>
        <path class="st6" d="M245.38,373.69l-13.67,12.14,12.3-14.01c.03.11,1.16,1.02,1.37,1.87Z"/>
        <path class="st39" d="M259.39,360.62c1.92.25.63,3.52-2.05,3.11-2.52-.38,1.45-3.19,2.05-3.11Z"/>
        <path class="st3" d="M255.29,353.14c.76,2.39-2,4.73-2.73,6.85-1.5-.31,2.54-6.17,2.73-6.85Z"/>
      </g>
      <g>
        <path class="st25" d="M282.97,370.58c-3.56,7.72-17.39,8.18-17.77,9.65-.33,1.3,15.16,13.86-4.78,20.86-.64.22-3.89,1.22-4.1,1.25-12.45,1.38-13.95-7.58-13.67-16.81.3-.14,6.22-1.56,6.49-1.87s.31-7.37,2.73-6.23c.24,1.28,1.48,11.63,3.42,10.59.85-2.94-4.26-10.84,0-11.83.42-.1,0,1.53,1.37,1.25,2.83-.58-2.04-4.63,4.44-2.49,1.61.53,3.37,3.03,4.1-.62.42-.04,4.03-1.22,4.44-1.25,6.28-.34,8.05,1.9,13.33-2.49Z"/>
        <path class="st47" d="M265.2,374.32c-.73,3.65-2.49,1.15-4.1.62-.3-2.7,3.41-.56,4.1-.62Z"/>
        <path class="st47" d="M260.07,379.3c.25,0,3.28,2.79,2.73,3.74l-3.42-1.87c-.94-.53.35-1.86.68-1.87Z"/>
      </g>
    </g>
  </g>
  <g>
    <path class="st17" d="M333.55,351.9c-.44-.44-.9-.84-1.37-1.25,17.29-1.69,24.75-14.73,15.04-28.33-16.04-22.47-53.15-3.47-49.89,19.93,2.48.96,4.87.91,7.52,1.56.22,2.29-5.12,5.7-7.52,6.23-.88-4.87-3.73-6.48-2.73-13.39,1.27-8.82,14.64-23.93,24.26-25.84,32.02-6.35,52,35.54,14.7,41.1Z"/>
    <g>
      <path class="st20" d="M332.18,350.65c.47.41.92.81,1.37,1.25,15.85,15.7-15.6,18.93-26.31,15.57-3.08-.97-9-5.58-9.91-8.41-.71-2.2.34-5.62,0-7.16,3.61,6.05,16.14,14.23,19.14,3.42,2.23-8.04-8.94-4.6-8.89-10.9,1.78.42,3.19,1.44,5.13,1.25-.91-1.75.11-2.6.34-3.74l1.37-.62c1.02,1.75,4.09.72,6.49,1.87.62.3,10.78,7.03,11.28,7.47Z"/>
      <path class="st17" d="M307.58,344.43c-.06,6.29,11.12,2.86,8.89,10.9-3,10.81-15.53,2.62-19.14-3.42-.13-.58.11-1.28,0-1.87,2.4-.53,7.74-3.94,7.52-6.23.88.22,1.83.41,2.73.62Z"/>
    </g>
    <path class="st15" d="M332.18,350.65c-.5-.44-10.66-7.18-11.28-7.47-2.4-1.15-5.47-.12-6.49-1.87.75-17.32,28.14-15.37,16.75,1.25,11.25-6.8.3-19.16-11.62-13.7-5.98,2.74-5.57,8.59-6.49,13.08-.23,1.13-1.25,1.98-.34,3.74-1.93.19-3.35-.82-5.13-1.25-.9-.22-1.85-.41-2.73-.62-2.65-.65-5.04-.6-7.52-1.56-3.25-23.4,33.86-42.39,49.89-19.93,9.71,13.61,2.25,26.64-15.04,28.33Z"/>
    <path class="st17" d="M314.41,341.31l-1.37.62c.93-4.49.51-10.34,6.49-13.08,11.92-5.46,22.87,6.9,11.62,13.7,11.4-16.62-16-18.56-16.75-1.25Z"/>
  </g>
  <g>
    <path class="st17" d="M1022.51,206.18c8.26,3.86,5.62,22.74-6.15,16.81-.13-.06-1.59-1.46-2.05-1.87-.05-.05.21-.38-.68-1.25-.97-.94-1.55-2.61-3.42-2.49,2.34-3.64,4.64-7.82,6.15-11.83,2.23.06,4.04-.37,6.15.62Z"/>
    <path class="st20" d="M955.18,225.49c4.8-.98,12.11-.33,9.91,5.29-2.86,7.32-21.49,6.38-22.56,3.11-.75-2.32,10.92-8.05,12.64-8.41Z"/>
    <path class="st41" d="M1013.62,219.88c-11.14,12.97-27.77,24.5-46.48,24.91.09-.24.06-.93,0-1.25,18.8-3.92,33.24-10.89,43.06-26.15,1.87-.12,2.45,1.56,3.42,2.49Z"/>
    <path class="st0" d="M967.14,243.55c.06.32.09,1.01,0,1.25-1.48,4.08-16.74,9.21-16.4-.31.26-7.21,15.41-5.79,16.4-.93Z"/>
    <path class="st41" d="M1016.35,223c-3.11,17.04-15.99,36.66-36.22,38.92,19.03-7.38,31.29-22.13,34.17-40.79.46.41,1.92,1.8,2.05,1.87Z"/>
    <g>
      <path class="st11" d="M983.21,191.24l1.71.31c-.4,10.77-17.6,20.51-25.97,9.96l24.26-10.27Z"/>
      <path class="st47" d="M927.84,192.48c1-.15,4.55-.18,5.47,0,5.01.97,6.61,5.99,3.76,9.65-8.52,10.94-23.21-7.54-9.23-9.65Z"/>
      <path class="st41" d="M955.18,199.33c11.12,12.2-.18,21.28-14.35,22.42,2.36-3.68,6.44-4.38,9.23-8.41s3.71-9.55,5.13-14.01Z"/>
      <path class="st11" d="M905.97,209.3c5.07,9.87,14.05,10.65,24.26,15.26-16.73,5.21-21.84-.89-24.26-15.26Z"/>
      <path class="st41" d="M923.74,180.65c.5-.09,1.42-.14,1.71.31-1.72,4.01-6.57,2.48-10.59,4.05-7.03,2.74-14.38,13.6-10.94,20.55-10.73-3.23-4.8-12.33,1.37-16.81,1.58-1.15,16.84-7.79,18.45-8.1Z"/>
    </g>
    <path class="st20" d="M977.05,262.85c.65-.02,2-.22,2.39.31.44,9.92-12.53,9.67-18.45,3.74.07-.76,15.23-4.02,16.06-4.05Z"/>
    <path class="st1" d="M949.03,256.62c1.19-.31,9.62,6.01,6.83,8.72-3.63.71-10.54-7.76-6.83-8.72Z"/>
    <g>
      <path class="st11" d="M1022.51,206.18c-2.11-.99-3.93-.56-6.15-.62,5.99-15.87,3.61-28.47-6.15-42.66-2.72-3.95-18.56-19.86-22.9-20.24-2.37-.21-2.54,1.93-4.1,1.87s-8.61-2.37-10.25-3.11c-2.44-1.11-.62-2.73-1.37-3.11-4.09-2.12-28.17-1.2-32.47,1.25-.99-1.1-.52-1.98-.68-3.11,5.39-.89,11.29-2.2,16.75-2.49,4.08-.22,13.04,1.36,15.72.62.53-.15,3.97-3.75,5.47-4.36,7.45-3.03,14.83-5.48,23.24-4.98-1.81,5.78-6.75,9.98-11.28,14.01,15.43,9.5,31.96,28.22,34.17,45.46.91,7.09-1.39,14.44,0,21.48Z"/>
      <g>
        <path class="st25" d="M938.44,136.44c.16,1.13-.3,2.01.68,3.11-1.5.86-2.37,4.37-5.81,5.6-1.94.7-9.21.69-9.91,1.56.99,2.04,2.39,2.34,3.42,4.67,1.31,6.76-11.43-7.69-10.94-8.41,10.51,2.23,1.17-1.93,3.76-3.42l7.52.62c.36-2.6-9.21-1.42-9.23-2.8l9.57-4.36c-4.95-.47-8.93,3.05-13.67,4.67-.15-.29-.62-1.2-.68-1.25-.77-1.78-.12-2.25.68-3.74.49-.9,1.57-1.32,1.37-2.49.36-.1.99.09,1.37,0,1.28-.32,2.02-.24,1.37-1.87-.46-1.14-1.24-.08-2.05-1.25,10.55-10.51,20.87-2.3,22.56,9.34Z"/>
        <path class="st25" d="M926.82,160.72c-2.52,4.09-7.41,3.8-11.62,1.87-1.88-2.29-1.51-3.41-2.05-5.6l2.73.31c-1.43-3.15-4.24-6.94-4.78-10.27-.13-.79.08-1.68,0-2.49.24.04.53-.07.68,0,1.39.63,4.25,7.08,6.49,8.1,2.15-.33-7.01-8.1-1.37-6.23.66.22,9.66,8.43,9.91,9.03.53,1.25-.66,4.04,0,5.29Z"/>
        <path class="st6" d="M926.82,151.38c1.61,3.63,2.41,5.42,0,9.34-.66-1.25.53-4.04,0-5.29-.25-.6-9.25-8.81-9.91-9.03-5.64-1.87,3.52,5.9,1.37,6.23-2.24-1.01-5.1-7.46-6.49-8.1,2.57-1.27,3.16-4.69,2.05-6.85,4.74-1.62,8.72-5.14,13.67-4.67l-9.57,4.36c.02,1.38,9.59.2,9.23,2.8l-7.52-.62c-2.59,1.5,6.75,5.65-3.76,3.42-.49.71,12.24,15.17,10.94,8.41Z"/>
        <path class="st3" d="M913.15,136.44c.06.04.54.96.68,1.25,1.11,2.16.52,5.58-2.05,6.85-.15-.07-.44.04-.68,0-.86-.14-4.35,2.92-4.78,2.18.92-3.71-5.2-5.36,0-9.65.11-.09,2.59-1.21,2.73-1.25.44-.1,3.68.31,4.1.62Z"/>
        <g>
          <path class="st12" d="M898.79,137.06c3.01.11,2.93-1.09,4.44-1.25.17-.02,1.09,1.73,3.08,1.25-5.2,4.29.92,5.94,0,9.65.43.74,3.92-2.32,4.78-2.18.08.81-.13,1.7,0,2.49-3.58,2.5,2.03,4.95,2.73,7.78.32,1.29-.78,1.78-.68,2.18.54,2.19.17,3.31,2.05,5.6-3.33-1.52-5.91-5.96-6.15-9.34l-.34-1.87-.34,1.87c-.46,18-22.29,10.6-9.57-3.42-6.8,1.39-18.96,1.21-17.77-8.1,1.11-8.69,13.09-4.85,17.77-4.67Z"/>
          <polygon class="st8" points="909.05 153.25 908.36 153.25 908.71 151.38 909.05 153.25"/>
          <path class="st6" d="M913.15,156.99c-.1-.4,1-.89.68-2.18-.7-2.84-6.32-5.28-2.73-7.78.54,3.33,3.36,7.12,4.78,10.27l-2.73-.31Z"/>
          <path class="st1" d="M904.6,151.38c.95.12-.24,1.92-.68,1.87-.95-.12.24-1.92.68-1.87Z"/>
        </g>
        <g>
          <path class="st12" d="M915.88,127.1c.81,1.16,1.59.1,2.05,1.25-1.73-.02-2.36.7-1.37,1.87-.38.09-1.01-.1-1.37,0-.26.07-6.15-.99-1.37,2.49-.8,1.49-1.46,1.96-.68,3.74-.42-.31-3.66-.72-4.1-.62l-1.71-3.11c-.63.35-.79,4.3-1.03,4.36-1.98.48-2.9-1.26-3.08-1.25-1.52.16-1.43,1.36-4.44,1.25-13.14-5.64-10.43-24.49,5.81-21.17,4.59.94,8.9,7.8,11.28,11.21Z"/>
          <path class="st47" d="M915.2,130.21c.2,1.17-.88,1.59-1.37,2.49-4.79-3.48,1.1-2.42,1.37-2.49Z"/>
          <path class="st47" d="M917.93,128.34c.65,1.63-.09,1.55-1.37,1.87-1-1.16-.36-1.88,1.37-1.87Z"/>
          <polygon class="st1" points="901.19 128.34 905.29 134.57 900.16 130.52 901.19 128.34"/>
          <path class="st12" d="M909.05,135.82c-.15.03-2.62,1.15-2.73,1.25.24-.06.39-4.01,1.03-4.36l1.71,3.11Z"/>
        </g>
      </g>
    </g>
  </g>
  <g>
    <path class="st20" d="M857.1,326.37c.85-1.39,1.35-4.21,2.05-5.6,14.87-13.19,40.69-15.2,54,.93,16.59,20.11-5.45,50.56-29.05,38.92-16.93-8.35-9.5-29.8,5.47-27.4,5.39.86,8.03,12.62,1.71,10.9,4.53-9.35-6.12-12.11-12.3-4.98-13.04,15.03,17.86,31.56,32.81,13.08,8.74-10.81,4.58-26.61-6.49-34.56-15.79-11.34-36.75-4.23-48.19,8.72Z"/>
    <path class="st20" d="M909.73,384.9l4.44,1.87c-9.91,3.76-19.47,2.42-29.73,1.25-22-5.95-46.79-32.55-31.1-52.93-9.32,32.27,22.51,56.5,56.39,49.82Z"/>
    <g>
      <g>
        <path class="st1" d="M990.38,303.95c-12.2,4.77-2.57,10.69-3.42,18.37l1.37-.62-2.05,7.78c-.41.08-.95-.07-1.37,0-.74.13-3.08.49-3.42.62-1.98-3.28-8.1-3.3-10.25-6.54-2.8-4.21-4.85-18.97,1.71-21.48,3.46-1.33,6.75.23,8.2,0,1.32-.21,3.68-6.36,9.23,1.87Z"/>
        <path class="st1" d="M986.28,329.48l2.05-7.78-1.37.62c.85-7.68-8.79-13.6,3.42-18.37.3-.12,5.35.02,6.49-1.25,5.77.65,8.4,13.36,7.18,17.12-.19.59-8.45,8.75-9.23,9.03-3.28,1.17-5.88.09-8.54.62Z"/>
      </g>
      <path class="st6" d="M927.5,280.29c-3.27,4.7,2.59,14.54,8.2,14.32,0,.04-.68-.19-.68.62,0,.4-.1.96,0,1.25-2.87-1.19-3.95,2.69-6.49,3.11-7.27,1.2-23.43-11.15-17.77-13.08,1.12-.38,4.32.53,5.13-.31.74-.77-2.29-4.67.34-6.54,3.63-2.58,8.04-.77,11.28.62Z"/>
      <path class="st44" d="M952.79,315.78c-2.62,2.28,1.99,10.32-3.42,9.34.18-6.4-3.27-16.09-6.83-21.48-1.31-1.97-6.85-5.26-7.52-7.16-.1-.28,0-.85,0-1.25,5.22-.86,7.08,2.51,9.91,5.6.68-.17,3.8-12.62,5.81-11.52,7.27,9.47,2.27,17.35,2.05,26.47Z"/>
      <path class="st12" d="M935.7,294.61c-5.61.21-11.47-9.62-8.2-14.32,10.31,4.44,8.26,5.48,8.2,14.32Z"/>
      <g>
        <path class="st20" d="M981.5,330.1c.34-.13,2.68-.49,3.42-.62-2.61,4.68-7.87,8.36-12.3,11.83-.26.2-1.88-.36-2.73.31-2.05,1.61-3.28,9.87-4.1,11.21-.73,1.19-4.11,5.35-5.47,7.16-.84,1.12-8.37,7.87-8.2,8.41,1.81,1.45,6.24,0,8.2-.93-1.54,2.17-7.64,3.81-9.91,3.11-1.85-.57.89-4.19-3.08-1.87-3.03-.96-.71-4.8-4.78-6.23,1.68-2.56,2.6-5.35.68-8.1,1.31-9.41,5.88-19.83,6.15-29.27,5.41.98.8-7.06,3.42-9.34-.19,7.94,1.4,16.23.34,24.29.9.68,8.98-7.2,15.04-5.6.93.25,2.48,3.13,4.1,3.11,1.78-.02,6.92-6.58,9.23-7.47Z"/>
        <path class="st10" d="M972.61,341.31c-.78,3.7-.99,7.52-2.05,11.21-4.47,1.84-3.67,14.15-10.25,7.47,1.36-1.81,4.74-5.97,5.47-7.16.82-1.34,2.06-9.6,4.1-11.21.85-.67,2.48-.11,2.73-.31Z"/>
        <path class="st32" d="M970.56,352.52c-1.71,5.95-3.81,11.86-10.25,14.95-1.96.94-6.39,2.38-8.2.93-.17-.54,7.36-7.28,8.2-8.41,6.59,6.68,5.78-5.63,10.25-7.47Z"/>
      </g>
      <g>
        <path class="st17" d="M923.4,369.96c-4.65,7.5,6.34,3.33,6.83,4.05l-4.44,4.67c3.1-1.92,7.27.56,10.25,0,2.53-.48,2.97-3.86,6.49-4.98.09-.03.65,1.04,1.71-.62l1.03,1.56c-3.84,4.98-10.92,9.26-17.43,10.9-2.32.58-8.45-.1-8.89,0-15.96,3.65-16.06,7.48-34.52,2.49,10.26,1.17,19.82,2.51,29.73-1.25l-4.44-1.87c11.89-2.34,3.85-.97,5.47-8.41.32-1.45,4.59-6,6.15-6.54.46-.16,1.42.09,2.05,0Z"/>
        <path class="st20" d="M943.22,354.39c1.91,2.74.99,5.54-.68,8.1-4.89,7.46-16.07,2.53-19.14,7.47-.63.09-1.59-.16-2.05,0l17.43-18.06c1.09-.36,4.13,2.04,4.44,2.49Z"/>
        <g>
          <path class="st16" d="M947.32,368.71c-.75.44-4.04,3.98-4.78,4.98-3.52,1.12-3.96,4.51-6.49,4.98-2.98.56-7.15-1.92-10.25,0l4.44-4.67c-.49-.71-11.49,3.46-6.83-4.05,3.06-4.95,14.24-.01,19.14-7.47,4.07,1.43,1.75,5.27,4.78,6.23Z"/>
          <path class="st24" d="M940.83,368.09c2.98-1.14.58,2.4-.68,1.87-.45-.19.54-1.81.68-1.87Z"/>
        </g>
      </g>
    </g>
  </g>
  <g>
    <path class="st1" d="M1010.2,399.85c9.68,14.53-9.05,20.15-14.35,12.14-4.63-6.98,4.04-11.08,10.25-12.14,1.72-.29,2.21-.72,4.1,0Z"/>
    <path class="st4" d="M1000.29,407.32c8.25.67-2.07,11.62-4.44.93,1.05.1,4.22-.95,4.44-.93Z"/>
  </g>
  <g>
    <path class="st1" d="M159.6,304.57c1.37-.11,6.48.65,7.52,1.25,1.4.8,3.79,6.17,3.76,6.54-.04.51-7.04,6.98-7.86,7.16-11.36,2.55-17.8-13.77-3.42-14.95Z"/>
    <path class="st4" d="M156.87,310.18c.95-.39,5.9,1.65,8.2,0l.34,2.18c-3.33,2.28-5.37,4.24-9.57,1.87.09-1.21-.52-3.41,1.03-4.05Z"/>
  </g>
  <g>
    <path class="st1" d="M1029,357.5c11.63-2.33,9.04,16.27-.68,12.45-5.63-2.21-4.22-11.47.68-12.45Z"/>
    <path class="st47" d="M1028.32,359.37c3.53-1.58,7.77,7.17,4.1,9.34-6.76.61-3.8-2.22-4.44-4.67-.08-.31-4.18-2.65.34-4.67Z"/>
  </g>
  <g>
    <path class="st12" d="M421.04,199.33c1.16-.43,4.63-1.78,5.47-1.87,4.84-.48,9.35.54,13.67,2.49.43.19,3.16,1.69,3.42,1.87.2.14,1.59,1.45,2.05,1.87.24.21,2.39,2.68,2.73,3.11,1.2,1.53,3.6,4.56,4.1,6.23.56,1.86.88,4.3.68,6.23-.8,7.95-8.54,10.69-14.35,15.26,32.11,1.9,18.9,43.08-7.52,36.43-.63-.16-2.77-.96-3.42-1.25-.93-.41-2.48-1.32-3.42-1.87-1.24-.73-3.7-4.53-6.15-4.05l3.42,12.14c-2.06,8.15-1.8,14.72-12.99,17.44-2.03.49-8.04.76-10.25.62-1.9-.12-8.5-1.7-10.25-2.49-.32-.14-3.27-1.75-3.42-1.87-.63-.53-2.95-4.6-3.42-5.6-.49-1.06-.46-2.38-1.37-3.11.38-3.02-.27-6.55,0-9.65-1-.19-1.7,1.05-2.73,1.56-15.19,7.5-31.41,6.17-34.86-11.83-.04-.2.03-.42,0-.62-1.4-10.33,3.67-16.43,14.35-19.62-6.79-.96-16.49-6.76-17.77-13.39-1.56-8.05,6.13-20.09,13.67-24.29.32-.18,3.88-1.8,4.1-1.87,7.72-2.27,9.91-.34,16.06,3.74-4.97-25.4,47.74-29.94,38.28,1.25,3.08-2.89,5.68-5.28,9.91-6.85Z"/>
    <g>
      <path class="st6" d="M384.13,235.45c3.99,3.44,3.06,6.95,6.49,9.34,2.35,1.64,6.43,1.34,7.86,3.74,1.2,2,.58,5.37,1.37,6.85h-.68c-.79-1.67-1.22-1.35-1.03-4.36-3.95,3.87-1.58,9.73-1.71,14.32-2.06-.22-1.56,1.22-.68,2.49-4.02-.15-.67-2.95-.68-3.42-.16-4.7-.19-9.35-.34-14.01-2.3-.41-4.66,13.82-5.13,15.57l-.68,1.87c-1.89.5-1.41-3.89-1.37-5.6l4.78-14.32c-7.05.47-11.31,10.56-14.01,16.19-3.07-4.05,10.46-16.09,9.91-17.12-3.46-.85-9.47,8.85-10.59,8.41-.05-5.72,6.08-5.82,9.23-10.27-.47-3.88-15.18,5.85-16.06,5.92-3.9.29,6.08-4.36,4.44-5.6.34-.11,2.9-.3,1.37-1.25.08-.03-.27-1.03.34-1.25.54-.19,6.51.62,5.47-1.25-3.01-3.5-14.78,2.31-12.64-3.11.66-.03,1.39.24,1.37-.62,3.15-.05,6.72.6,9.57-.93-.02-.85-7.81-1.86-8.89-2.18.42-2.42-.89-1.89-3.08-1.87l.34,1.25c-1.58-.65-3.3-.58-1.03-2.49,2.7-.88,8.13,4.73,11.28,2.18l-11.28-5.92c-1-1.2.27-1.47,1.37-1.25.85.18,13.73,7.89,14.7,8.72Z"/>
      <path class="st6" d="M401.21,213.65c-.27,1.11-6.08,18.63-.68,15.88-.98-2.31,4.96-13.89,5.81-14.01.15-.02.51,1.69,2.39,1.56-2.32,1.99-6.39,12.66-5.47,14.95,2.55,3.46,8.37-11.57,8.89-5.6l-8.2,7.78c-2.59-4.41-9.6-3.07-12.3-7.47.1-.15,1.3-.23,1.37-1.56.02-.35-3.29-5.65-3.42-6.23-.29-1.31-.03-4.66-.68-6.23l4.44,10.27c.12-3.22.49-4.57,1.71-7.47,1.94,1.11.94.21,1.37-.62,3.22,4.72,2.65-2.65,4.78-3.74-.77.88.05,2.3,0,2.49Z"/>
      <path class="st0" d="M408.05,246.04c.75.44.64.6.68.62,1.56.75,1.78,1.23,4.1,1.87,1.06,3.18,6.22,5.23,9.23,6.85l-.68,1.25c-5.59-3.35-11.17-7.85-18.11-8.72-.25-.6-1.92-2.6-1.03-3.11l5.81,1.25Z"/>
      <path class="st11" d="M424.45,267.83c-.28,2.81-2.06,5.44-2.73,8.1l-3.42-12.14c2.45-.48,4.92,3.32,6.15,4.05Z"/>
      <path class="st47" d="M387.54,262.23c.12-4.63,1.49-10.17,4.78-14.32l-4.78,14.32Z"/>
      <polygon class="st3" points="384.47 214.9 389.25 225.49 380.71 217.08 384.47 218.64 384.47 214.9"/>
      <polygon class="st47" points="374.9 215.52 378.66 218.95 383.1 226.73 374.9 215.52"/>
      <path class="st47" d="M399.85,255.38c1.54,2.91,5.58,5.3,5.81,8.72-.98-1.65-6.65-6.79-7.18-7.78-.46-.87.71-.88.68-.93h.68Z"/>
      <path class="st8" d="M412.83,248.53c-2.32-.64-2.54-1.12-4.1-1.87l12.64,3.11c-2.81,0-5.82-.49-8.54-1.25Z"/>
      <path class="st39" d="M376.61,244.17c1.53.95-1.03,1.13-1.37,1.25-1.31.44-9.23,3.67-9.57,2.8,2.95-2.41,7.31-2.77,10.94-4.05Z"/>
      <path class="st8" d="M417.28,234.2c.1,0,2.08.93,1.37,1.25l-7.86.93c-.11-.41,6.15-2.2,6.49-2.18Z"/>
      <path class="st4" d="M396.43,214.9c-.42.84.57,1.73-1.37.62.53-1.25.99-2.56,1.71-3.74l1.03.31c-.76.78-.88,1.84-1.37,2.8Z"/>
      <path class="st38" d="M401.21,213.65c.05-.19-.77-1.61,0-2.49,3.1-1.57,2.52,1.59,0,2.49Z"/>
      <path class="st47" d="M371.82,234.83c-.88-.26-2.51-.53-2.73-.62l-.34-1.25c2.18-.02,3.5-.55,3.08,1.87Z"/>
      <path class="st38" d="M416.59,218.01c1.8-.01.14,3.04-2.05,2.49-.39-.62,1.88-2.49,2.05-2.49Z"/>
      <path class="st38" d="M396.43,265.34c0,.15.35,3.91-.68,2.49-.87-1.27-1.37-2.71.68-2.49Z"/>
      <path class="st38" d="M425.48,232.34c.49-.15,1.93-.12,2.39.31-1.58,2.09-4.8.43-2.39-.31Z"/>
      <path class="st38" d="M371.14,237.94c.02.86-.71.59-1.37.62-1.42.07-3.54.31-2.39-1.25.88.98,2.51.64,3.76.62Z"/>
      <path class="st28" d="M388.91,267.83l.68-1.87c-.14.52,1.08.88.68,1.56l-1.37.31Z"/>
      <path class="st3" d="M386.86,229.85c-.77-.58-2.64-1.09-1.71-2.49.83.83,1.82,1.16,1.71,2.49Z"/>
      <g>
        <path class="st3" d="M386.86,229.85c.8.6,1.76,1.06,2.39,1.87,1.57-4.75.28-.11,4.1-1.25l-3.08-4.05c1.19-1.03,1.33.37,1.37.31,2.7,4.4,9.71,3.06,12.3,7.47,1.87,3.18,2.41,8.03-.68,9.65,1.69.47,3.32,1.32,4.78,2.18l-5.81-1.25c-.9.51.78,2.51,1.03,3.11,1.72,4.2,5.38,6.12,7.18,9.96-6.6,1.39-8-17.12-11.96-9.34-1.43-2.4-5.51-2.09-7.86-3.74-3.43-2.4-2.5-5.9-6.49-9.34,8.23-.41-8.67-8.24-9.57-10.9l-3.42-4.98c2.33.67,15.2,16.62,15.72,10.27Z"/>
        <path class="st22" d="M394.04,237.94c1.62.18.43,2.79-.68,1.25-.45-.62.61-1.25.68-1.25Z"/>
      </g>
    </g>
  </g>
  <g>
    <path class="st17" d="M880.34,459c-.55,1.42-.79,2.83-.68,4.36-1.48-.17-3.41.25-4.78,0-14.13-2.53-28.25-6.46-41.35-11.83-4.44,7.17,2.18,10.93,3.08,17.12.82,5.68-.52,14.71-5.81,18.37-3.23-5.44-10.41-10.22-9.23-17.12,1.83-10.73,18.5-15.69,1.37-28.33.73-1.59,1.86-3.24,2.05-4.98,9.98,16.82,36.52,19.38,55.36,22.42Z"/>
    <path class="st44" d="M896.06,472.08c3.86,3.79,4.14,9.32,6.15,14.01-.84,2.01-9.13.61-10.94.31,1.93-5.51-8.37-9.39-5.47-15.57,3.41,1.56,6.61,2.05,10.25,1.25Z"/>
    <path class="st11" d="M879.66,463.36c.25,3.43,2.81,5.94,6.15,7.47-2.9,6.18,7.4,10.06,5.47,15.57-13.74-2.29-11.63-13.33-16.4-23.04,1.38.25,3.3-.17,4.78,0Z"/>
    <g>
      <path class="st20" d="M870.77,391.75c3.52,2.42-3.95,7.58-4.1,9.65-.05.62,2.89,5.49,2.05,7.16-2.37.44-3.93.81-6.49.62-.54-.04-.13-1.16-.68-1.25-.46-.07.05,1.46-1.37,1.25-.99-.15-1.87-2.18-7.18-2.49-.84-.05-1.93-.1-2.73,0-.67-.44-1.63-1.83-2.05-1.87,4.6-5.82,15.07-11.38,22.56-13.08Z"/>
      <path class="st43" d="M872.14,407.94c-.59-.77-2.28.41-3.42.62.84-1.67-2.1-6.54-2.05-7.16.15-2.07,7.62-7.23,4.1-9.65,1.54-.35,1.2.85,3.08.62,2.65-.32,10.13-4.04,11.28.31,1.45,5.5-8.03,13.14-12.99,15.26Z"/>
      <path class="st18" d="M850.27,406.7c.81-.1,1.9-.05,2.73,0,2.1,3.73.91,8.13,5.81,9.96l-.34,1.56-15.04-1.56c-.7-1.53-.74-4.53,0-6.23,1.34-3.07,4.03-3.4,6.83-3.74Z"/>
      <path class="st23" d="M868.72,408.56c1.14-.21,2.83-1.39,3.42-.62-4.74,2.02-6.46,1.54-10.94,2.8,6.89,10.49-14.21,13.69-17.77,5.92l15.04,1.56.34-1.56c-4.9-1.83-3.71-6.24-5.81-9.96,5.31.32,6.18,2.34,7.18,2.49,1.42.22.91-1.32,1.37-1.25.55.09.15,1.21.68,1.25,2.56.18,4.12-.18,6.49-.62Z"/>
    </g>
    <g>
      <path class="st17" d="M932.29,460.25c2.76.06,4.86-.3,7.52-.62,3.23,2.2,4.96-.06,7.52,3.11.83,1.02.79,1.46,0,2.49-9.29-.9-22.52,1.75-32.12,1.87,2.47-4.33.52-5.31,0-8.72-.17-1.09-1.5-2.97-.34-3.74,4.06,4.4,11.44,5.48,17.43,5.6Z"/>
      <g>
        <path class="st11" d="M947.32,465.23c.79-1.03.83-1.47,0-2.49l11.62-.31-4.78-1.87,13.67-17.75c10.17-3.63,22.4-.22,32.47,3.74,11.33,4.45,19.84,13.04,29.05,20.24-14.18,15.28-37.64,21.09-59.12,18.37-8.92-1.13-11.58-7.15-16.06-13.39-3.32-4.62.27-5.85-6.83-6.54Z"/>
        <path class="st11" d="M947.32,462.74c-2.56-3.17-4.29-.91-7.52-3.11,1.54-.18,9.45-1.06,9.91-1.25.61-.24,4.74-7.73,7.52-9.96,2.29-1.84,7.71-4.57,10.59-5.6l-13.67,17.75,4.78,1.87-11.62.31Z"/>
      </g>
      <g>
        <path class="st6" d="M932.29,460.25c-5.99-.13-13.37-1.2-17.43-5.6-1.16.77.18,2.65.34,3.74-2.16-.26-1.9-5.05-2.05-5.29-.78-1.3-2.38-.7-2.73-1.25-1.79-2.76-3.26-8.28-7.52-9.65.48-3.35,5.81-2.78,2.73-4.67,6.31-2.41,13.68-1.89,20.5-2.49l-17.09-.31c.09-.04-.28-.99.34-1.25,1.85-.75,7.09-.75,8.54-2.8.16-.23-1.88-.22-1.37-1.25.66-1.31,3.26,1.4,6.15-3.42,10.89-.66,21.31,3.1,19.82,14.63-.24,1.87-2.38,4.6-2.73,6.23-.25,1.15,1.38,4.72.68,6.85-.49,1.48-6.7,5.33-8.2,6.54Z"/>
        <g>
          <path class="st12" d="M889.23,432.23c6.01,7.16-5.66,1.47-10.25,5.29,5.85.48,9.63-2.23,14.35,2.18-2.2,3.02,1.18,1.19,1.37,1.25,3.18.87,6.73.77,8.2,1.25,4.26,1.37,5.73,6.89,7.52,9.65.35.55,1.95-.06,2.73,1.25.15.25-.11,5.03,2.05,5.29.52,3.41,2.47,4.38,0,8.72-4.21,7.39-10.15,1.66-13.33,1.87-.34.02-4.76,2.88-5.81,3.11-3.65.81-6.84.32-10.25-1.25s-5.9-4.05-6.15-7.47c-.11-1.53.14-2.93.68-4.36.63-1.63,4.56-4.77,5.13-6.85-7.66,6.88-26.56,7.6-19.48-5.92.75-1.43,2.96-1.23,3.42-3.11.14-.56-4.06-5.27-4.1-5.6-.13-1.11,2.18-2.34,2.05-2.49-.44-.52-7.68-.58-6.83-6.85.32-2.33,6.86-7.21,8.89-7.16,1.78.04,14.12,10.76,19.82,11.21Z"/>
          <path class="st6" d="M899.82,446.55c1.88,3.13,1.45,9.22,0,12.45-.17-3.97-1.08-8.62,0-12.45Z"/>
          <polygon class="st1" points="901.87 443.44 906.31 451.22 907.34 457.76 901.87 443.44"/>
          <path class="st28" d="M882.73,445.93c1.49.52-2,3.53-3.08,1.56l3.08-1.56Z"/>
          <path class="st28" d="M890.25,457.14c1.23,1.58-.55,2.2-2.05,2.49l2.05-2.49Z"/>
        </g>
        <g>
          <path class="st12" d="M922.72,426c-2.89,4.83-5.49,2.11-6.15,3.42-.51,1.02,1.53,1.02,1.37,1.25-1.45,2.05-6.69,2.05-8.54,2.8-.63.25-.25,1.21-.34,1.25-.17.07-2.91,1.94-3.08,1.87-1.14-.51-1.33-2.46-2.05-3.11s-3.31-1.11-3.42-1.25c-1.66-2.04,1.87-3.32.68-4.36-2.27-1.99-1.75,2.53-2.73,3.11-.17.1-3.9-.67-4.1-.62-2.89.69.12,2.28-5.13,1.87-5.7-.45-18.04-11.17-19.82-11.21,3.89-4.08-.08-10.11,5.13-13.08,6.67-3.81,12.19,3.44,18.45,4.98,1.91-5.67,8.66-14.38,16.4-13.08,3.13.52,11.32,11.5,15.38,13.39,1.7,4.04.12,9.13-2.05,12.77Z"/>
          <polygon class="st6" points="883.42 422.89 891.96 428.8 882.73 424.13 883.42 422.89"/>
          <path class="st0" d="M910.76,421.64c1.44,1.75-3.2,4.36-4.1,5.6l4.1-5.6Z"/>
          <path class="st13" d="M904.6,420.4c1.4.34-1.83,4.97-2.05,5.6-1.4-.61,1.39-4.96,2.05-5.6Z"/>
          <path class="st39" d="M901.19,416.04c.48,0,.6,3.13,0,3.74-.53,0-.53-3.73,0-3.74Z"/>
        </g>
        <g>
          <path class="st3" d="M909.05,434.72l17.09.31c-6.82.6-14.2.09-20.5,2.49,3.07,1.89-2.25,1.32-2.73,4.67-1.47-.47-5.02-.38-8.2-1.25.11-.76-1.15-1.04-1.37-1.25-4.73-4.41-8.5-1.7-14.35-2.18,4.59-3.82,16.26,1.87,10.25-5.29,5.25.41,2.23-1.18,5.13-1.87.2-.05,3.93.73,4.1.62.99-.58.46-5.1,2.73-3.11,1.19,1.04-2.34,2.32-.68,4.36.11.13,2.66.56,3.42,1.25s.91,2.6,2.05,3.11c.17.07,2.91-1.8,3.08-1.87Z"/>
          <path class="st1" d="M894.69,440.95c-.19-.05-3.57,1.78-1.37-1.25.22.2,1.48.49,1.37,1.25Z"/>
          <path class="st3" d="M897.09,434.1c2.5-.07,1.22,1.89,0,1.87-1.01-.02-1.03-1.84,0-1.87Z"/>
        </g>
      </g>
    </g>
  </g>
  <g>
    <path class="st41" d="M533.81,123.36c-11.62,2.7-39.79,13.19-51.95,19.3l-25.29-14.01c13.46-11.27,41.49-28.15,59.12-16.5,2.15,1.42,6.97,7.91,7.52,8.1.84.28,8.26-1.07,10.59,3.11Z"/>
    <path class="st11" d="M381.39,284.02c-4.49,28.11-2.54,57.97,10.25,84.07-1.31.7-2.79,1.17-4.1,1.87-10.32-26.21-14.19-52.93-10.25-80.64.39-2.75,2.4-5.71,2.73-8.41.9.73.88,2.05,1.37,3.11Z"/>
    <path class="st11" d="M665.04,482.05c1.26.18.47,1.73.68,2.49l-37.93,9.96c.33,5.93-5.48,1.87-6.15,1.87-2.93-.02-5.11.45-7.86.62l-.34-1.87c-6.98,1.87-24.85,3.93-32.81,2.49-1.1-.2-3.78-1.72-3.76-3.11,29.86,1.67,60.35-2.56,88.17-12.45Z"/>
    <path class="st19" d="M613.1,114.02c.43.18,1.79-.17,2.05,0,.38.25,2.99,7.32,1.37,8.1-.15,0-2.58,1.24-2.73,1.25-3.14.14-6.49.23-9.57.62-6.65-9.79,4.9-.46,6.15-9.96.8.12,2.24-.2,2.73,0Z"/>
    <path class="st11" d="M528.34,492.63c-1.25.88-1.43,2.8-3.76,2.49-1.31-.18-17.95-13.35-20.85-14.95,3.04,1.35,6.17,3.14,9.23,4.36,4.55,1.82,17.04,2.26,15.38,8.1Z"/>
    <path class="st16" d="M610.36,114.02c-1.26,9.51-12.8.18-6.15,9.96-1.57.2-1.55.67-2.73,1.25-1.05-.31-2.01-1.35-4.78-1.87.59-.86.5-3.42.68-3.74.29-.5,9.29-6.79,9.91-6.85,1.83-.18,2.91,1.22,3.08,1.25Z"/>
    <path class="st42" d="M613.78,123.36c-.19.36-1.26,1.81-1.37,1.87-1.94,1.01-8.55,1.75-10.59,1.25-1.69-.42-.27-1.23-.34-1.25,1.19-.58,1.16-1.05,2.73-1.25,3.08-.39,6.43-.48,9.57-.62Z"/>
    <path class="st15" d="M570.04,467.1c47.01,4.25,94.41-8.27,129.86-36.74,6.12,1.07,16.42-.19,22.21-2.49,2.55.55.07,1.1-.34,1.87-41.37,35.83-99.93,51.52-156.52,44.84-32.41-3.83-78.46-22.34-100.47-44.84-3-3.07-10.97-12.19-8.2-15.57.5.05,1.09-.99,2.39-.62,1.52.43,19.01,16.94,23.24,19.93,25.69,18.18,55.16,30.67,87.83,33.63Z"/>
    <path class="st15" d="M710.84,459c-14.34,8.76-29.62,17.29-45.79,23.04-27.82,9.89-58.31,14.12-88.17,12.45-22.87-1.28-45.8-6.39-66.64-14.95-4.16-1.71-33.98-16.82-34.86-18.68-.5-1.05,1.25-4.89,2.73-4.98,1.21-.07,17.28,10.29,20.5,11.83,7.61,3.63,15.54,6.59,23.58,9.34,50.68,17.32,103.2,15.52,152.42-4.98,12.5-5.21,24.57-11.82,35.54-19.3,0,.9.5,5.68.68,6.23Z"/>
    <path class="st15" d="M469.56,438.46c29.52,21.22,60.4,35.41,98.42,39.85,52.44,6.12,104.18-7.33,145.58-36.74-1.19,2.35-2.27,4.88-2.73,7.47-12.35,7.4-24.69,14.5-38.28,19.93-24.77,9.89-51.48,15.29-78.6,15.57-39.9.41-77.26-9.97-109.7-30.51-2.41-1.53-18.99-12.97-19.48-14.01-.28-.61-.04-4.06-.34-5.29.61-.26,4.21,3.08,5.13,3.74Z"/>
    <path class="st44" d="M459.99,409.19c50.28,48.43,108.7,67.45,179.76,41.1.7-.26,5.36-1.12,5.47-1.56-2.55-2.64-3.53.37-3.76.31-.26-.06-.76-2.21-3.76-2.8l7.52-3.42c.19.19,2.11-.21,2.39,0,.79.58,1.3,2.92,3.42,3.11,2.26.2,5.16-2.66,6.49-3.11,1.05-.36,2.37-.85,3.42-1.25,10.02-3.8,14.4-6.6,23.24-11.83,2.02-1.2,5.61-1.66,6.83-4.36.33.27,3.58,2.23,4.1,2.49-26.22,17.76-56.63,28.28-88.17,35.49-2.85.28-3.05-1.61-7.18-1.25-1.03.09-4.5,1.84-4.78,1.87-8.28.89-16.8,1.32-24.95,3.11-32.67-2.95-62.14-15.45-87.83-33.63-4.23-2.99-21.72-19.49-23.24-19.93-1.31-.37-1.89.68-2.39.62-.77-.08-2.23.3-2.73-.31,4.63-5.13-.04-4.04-2.05-6.85-.36-.51-.24-1.68-2.05-4.05-2.04-2.67-4.72-4.99-6.83-8.1,1.1-.61,2.14-1.01,3.42-.31,1,.55,11.25,12.3,13.67,14.63Z"/>
    <path class="st17" d="M713.57,441.57c-41.41,29.41-93.14,42.86-145.58,36.74.43-3.04-1.89-2.23-4.1-2.8l1.37-.93c56.59,6.69,115.15-9,156.52-44.84-2.26,4.25-6.08,7.62-8.2,11.83Z"/>
    <path class="st11" d="M699.9,430.36c-35.46,28.47-82.86,40.99-129.86,36.74,8.14-1.79,16.67-2.22,24.95-3.11.29-.03,3.75-1.78,4.78-1.87,4.12-.37,4.33,1.52,7.18,1.25,32.73-3.19,64.35-15.84,89.54-34.87,1.25.49,3.22,1.83,3.42,1.87Z"/>
    <path class="st15" d="M695.11,427.87c.44.22.9.44,1.37.62-25.18,19.03-56.81,31.68-89.54,34.87,31.54-7.21,61.95-17.73,88.17-35.49Z"/>
    <path class="st11" d="M710.84,449.04c-.18.99-.68,3.04-.68,3.74-10.97,7.49-23.04,14.1-35.54,19.3l-2.05-3.11c13.59-5.43,25.93-12.53,38.28-19.93Z"/>
    <path class="st11" d="M688.28,422.26l-27.34,19.3c-1.04.4-2.36.88-3.42,1.25.14-1.53.53-2.18,0-3.74-.07-.2.08-.47,0-.62l28.02-18.68c.09.16,1.75,1.33,2.73,2.49Z"/>
    <path class="st41" d="M691.01,425.38c-1.22,2.7-4.81,3.16-6.83,4.36l4.1-7.47c.79.93,1.82,2.36,2.73,3.11Z"/>
    <path class="st15" d="M427.87,269.7c-11.03,36.61-4.93,75.18,14.35,108.35-.63.06.16,2.63-3.42-.93-9.81-9.76-19.01-40.32-20.5-53.55-1.25-11,.45-22.77-1.71-33.32-9.66,33.76,6.57,75.66,26.31,104.62,2.12,3.11,4.79,5.42,6.83,8.1l1.03,3.11c-5.82.77-4.89,3.48-8.54-.62-23.56-26.49-34.13-68.76-33.49-102.13.06-3.31-.05-6.65,0-9.96,11.19-2.72,10.92-9.29,12.99-17.44.67-2.65,2.45-5.29,2.73-8.1.93.55,2.49,1.46,3.42,1.87Z"/>
    <path class="st15" d="M398.48,293.99c-3.51,23.4-.16,47.16,6.83,69.74-.86-.09-5.98.41-6.83.62-10.24-22.66-13.74-48.5-10.25-72.86,1.75.79,8.35,2.37,10.25,2.49Z"/>
    <path class="st11" d="M431.29,270.94c-6.96,26.61-6.72,55.21,2.73,81.26,1.03,2.84,10.28,22.24,11.96,22.73.99.29,5.41-3.19,7.86-3.74l-2.05,6.23c-1.09.11-.48,1.23-1.03,1.25-4.38.12-5-1.83-5.47-1.87-.17-.01-2.42,1.18-3.08,1.25-19.28-33.17-25.38-71.75-14.35-108.35.65.29,2.79,1.09,3.42,1.25Z"/>
    <path class="st11" d="M388.23,291.49c-3.49,24.36.01,50.2,10.25,72.86-.8.2-4.19,1.92-5.47,2.49-9.76-24.55-13.32-51.38-8.2-77.22.15.12,3.1,1.72,3.42,1.87Z"/>
    <path class="st11" d="M408.73,293.36c-.05,3.31.06,6.65,0,9.96l-3.42-1.25c.12-1.63,1.53-5.41-.34-6.23-4.82,10.81-4.21,21.74-3.08,33.32s4.59,24.26,8.2,35.81c-.23-.09-4.54-1.22-4.78-1.25-6.99-22.59-10.35-46.35-6.83-69.74,2.21.14,8.22-.13,10.25-.62Z"/>
    <path class="st15" d="M384.81,289.63c-5.12,25.83-1.55,52.67,8.2,77.22-.09.04-.34.7-1.37,1.25-12.79-26.1-14.75-55.96-10.25-84.07.46,1,2.79,5.08,3.42,5.6Z"/>
    <path class="st17" d="M408.73,303.33c-.64,33.36,9.94,75.63,33.49,102.13-3.14-.31-1.39-3.51-4.1,0-3.33-6.74-10.72-15.76-15.04-23.04-2.64-4.45-2.15-8.49-6.83-13.08-9.31-22.16-12.73-43.48-10.94-67.25l3.42,1.25Z"/>
    <path class="st11" d="M674.61,472.08c-49.22,20.5-101.73,22.3-152.42,4.98,15.49,3.35,30.82,8.54,46.82,9.96,4.55.4,14.36,1.25,18.45.62.66-.1.01-1.7.68-1.87,1.52-.37,5.66,1.12,5.81-1.25,27.12-.28,53.84-5.68,78.6-15.57l2.05,3.11Z"/>
    <path class="st11" d="M565.25,474.57l-1.37.93c2.21.58,4.53-.24,4.1,2.8-38.03-4.44-68.9-18.63-98.42-39.85-.83-3.85-7.79-4.52-4.78-8.72,22.02,22.5,68.06,41.01,100.47,44.84Z"/>
    <g>
      <path class="st30" d="M438.12,405.45c2.71-3.51.96-.31,4.1,0,3.65,4.11,2.73,1.39,8.54.62l-1.03-3.11c1.81,2.37,1.69,3.54,2.05,4.05,2.01,2.81,6.68,1.72,2.05,6.85.5.61,1.96.23,2.73.31-2.77,3.38,5.2,12.5,8.2,15.57-3,4.19,3.96,4.87,4.78,8.72-.92-.66-4.51-3.99-5.13-3.74.3,1.23.06,4.69.34,5.29.49,1.04,17.07,12.48,19.48,14.01,32.44,20.55,69.8,30.92,109.7,30.51-.15,2.37-4.29.87-5.81,1.25-.67.17-.02,1.77-.68,1.87-4.1.63-13.9-.22-18.45-.62-16-1.42-31.33-6.61-46.82-9.96-8.04-2.75-15.97-5.71-23.58-9.34-3.23-1.54-19.29-11.9-20.5-11.83-1.49.09-3.23,3.93-2.73,4.98.88,1.86,30.7,16.98,34.86,18.68,20.84,8.55,43.77,13.67,66.64,14.95-.02,1.39,2.66,2.92,3.76,3.11,7.96,1.44,25.83-.62,32.81-2.49l.34,1.87c-24.68,1.55-42.81,1.7-67.32-2.49-2.52-.43-15.57-4.52-16.4-4.36s-1.24,2.16-1.71,2.49c1.66-5.84-10.83-6.27-15.38-8.1-3.05-1.22-6.19-3.01-9.23-4.36-11-4.87-21.47-10.21-31.78-16.19-1.45,3.8-4.08,5.45-8.2,2.49-3.85,2.05,17.12,15.04,19.14,16.19,17.32,9.89,37.52,16.58,57.75,19.3-.22.21-1.3,2.16-1.37,2.49-29.87-2.64-56.15-15.84-78.26-33.63-4.83,23.43-27.56,40.66-47.84,54.18-11.73-20.39-21.85-44.16-15.38-67.56l-32.81,22.11c.91-1.28,2-2.79.68-4.36,2.03-1.67,5.38-3.72,6.15-6.23.26-.84-1.28-1.23-1.37-2.49,16.35-5.55,31.52-15.02,34.86-31.76,8.39-4.48,15.23-12.19,11.62-21.17h1.37c.92,1.64,2.41,3.16,3.08,4.98,1.49.33,1.99-.77,3.08-1.25,1.87-.81,3.03-2.46,4.1-3.11s6.12-1.24,6.15-2.8l-15.04-20.86c.33-.45,1.22-1.6,1.37-1.87l17.77,23.35c3.3,1.14-.38-5.93-.68-6.54Z"/>
      <path class="st11" d="M445.98,412.3c.16,9.15-3.28,17.26-7.86,25.22.02,3.56,11.61,7.53,8.2,9.96-1.5,1.07-7.27-6.17-9.91-5.29l-6.83,14.32,3.08-10.9-10.25,1.87c-.33-.91,10.41-4.49,10.94-4.98,1.45-1.37,10.78-31.01,12.64-30.2Z"/>
    </g>
    <path class="st15" d="M428.55,414.17l-12.99-19.93c.24-.15,3.94-3.52,4.1-3.74l15.04,20.86c-.03,1.56-5.07,2.14-6.15,2.8Z"/>
    <path class="st15" d="M436.29,405.45c.27.61,3.56,7.68.61,6.54l-15.87-23.35c.81-1.68.59-4.68,1.83-6.23,3.85,7.28,10.46,16.3,13.43,23.04Z"/>
    <path class="st11" d="M428.55,414.17c-1.07.66-2.23,2.3-4.1,3.11-3.04-3.81-5.96-7.55-8.2-11.83-1.35-2.58.07-3.27,0-3.42-.68-1.6-3.76-3.84-4.1-5.92,1.02-.52,2.49-1.26,3.42-1.87l12.99,19.93Z"/>
    <path class="st11" d="M412.15,396.11c.34,2.07,3.42,4.32,4.1,5.92.07.16-1.35.84,0,3.42-1.09,1.75.95,6.14,2.05,8.1h-1.37c-1.5-3.72-5.86-7.24-8.89-9.96-2.52-2.27-3.91-1.72-4.1-1.87-.1-.08-.18-1.83-1.37-2.18.36-1.47,7.96-2.61,9.57-3.42Z"/>
    <path class="st15" d="M424.45,417.28c-1.09.47-1.58,1.58-3.08,1.25-.67-1.82-2.15-3.34-3.08-4.98-1.1-1.96-3.14-6.35-2.05-8.1,2.24,4.28,5.16,8.02,8.2,11.83Z"/>
    <path class="st15" d="M405.32,302.08c-1.79,23.78,1.63,45.1,10.94,67.25-.86-.84-5.13-3.96-6.15-4.36-3.61-11.55-7.02-23.75-8.2-35.81s-1.75-22.51,3.08-33.32c1.87.81.46,4.6.34,6.23Z"/>
    <path class="st11" d="M442.22,378.05c.65-.07,2.91-1.26,3.08-1.25.47.04,1.08,1.99,5.47,1.87.55-.02-.06-1.13,1.03-1.25.34-.04,2.36.75,4.44,0,4.1-1.47,6.62-5.76,11.28-5.6,6.13,7.16-19.66,7.89-19.82,9.03,8.62,6.45,12.56,14.81,19.82,22.42,12,12.58,30.41,25.4,47.16,31.45.74,1.69,5.34,5.11,7.18,5.6,4.52,1.22,5.82-.66,6.15-.62.53.06,3.48,5.72,7.52,6.85,3.7,1.04,7.59-.38,9.91,0,7.94,1.29,16.17,3.77,24.26,4.36,22.39,1.62,49.79-.79,68.69-12.45-1.1,1.6-1.4,4.52-5.13,6.85-4.59,2.87-11.34,2.05-13.33,5.6-37.78,5.86-65.52,4.98-101.5-8.1-26.2-9.52-34.61-18.37-55.36-33-.24-.17-2.96-1.92-3.08-.62-2.42-2.33-12.67-14.08-13.67-14.63-1.28-.7-2.31-.3-3.42.31-19.75-28.95-35.97-70.86-26.31-104.62,2.16,10.55.46,22.31,1.71,33.32,1.5,13.24,10.7,43.8,20.5,53.55,3.58,3.56,2.78,1,3.42.93Z"/>
    <path class="st11" d="M644.54,437.83c.02,1.54-1.23,3.1.68,4.98l-7.52,3.42c3,.59,3.5,2.74,3.76,2.8.23.05,1.21-2.96,3.76-.31-.11.44-4.77,1.3-5.47,1.56l-.34-2.49c-6.53.74-12.98,2.11-19.48,3.11,1.99-3.56,8.74-2.73,13.33-5.6,3.72-2.33,4.02-5.25,5.13-6.85,8.46-12.25,3.31-6.64,4.1-18.68,5.01.71,3.28-3.44,5.81-5.6l1.37,8.1c6.75-3.9,9.08-10.26,6.49-17.44.99,1.08,1.84,2.05,2.05,3.42,1.43,9.24-4.66,15.48-9.57,23.04-.74,1.14-5.34,5.19-5.47,5.6-.39,1.29,1.37.86,1.37.93Z"/>
    <path class="st20" d="M656.16,404.83c2.59,7.18.26,13.54-6.49,17.44l-1.37-8.1c-2.53,2.17-.8,6.31-5.81,5.6.3-4.52,5.32-11.65,8.89-14.63,2.74-2.29,2.11-3.22,4.78-.31Z"/>
    <path class="st18" d="M657.52,439.08c.53,1.55.14,2.2,0,3.74-1.33.46-4.24,3.32-6.49,3.11-2.11-.19-2.63-2.53-3.42-3.11-.28-.21-2.2.19-2.39,0-1.92-1.88-.66-3.44-.68-4.98.78.11.64-.58.68-.62,4.33-.38,8.32.38,12.3,1.87Z"/>
    <path class="st7" d="M467.51,371.82c-4.65-.16-7.18,4.13-11.28,5.6-2.08.75-4.1-.04-4.44,0l2.05-6.23c2.47-.55,12.15-1.15,13.67.62Z"/>
    <g>
      <path class="st21" d="M621.3,164.46c2.07.43,7.04,2.32,7.52,3.74-.93.14-.64.61-.68.62-2.67.65-3.95,1.89-6.15,3.11-3.78,2.1-9.68,6.31-11.62,9.96-4.4,8.32-1.35,15.72,6.49,21.17,3.99,2.77,27.46,11.57,31.44,10.59.43-.11,4.88-5.94,5.13-6.54,4.25-10.18-.69-7.04-4.1-11.83-.41-.58.73-1.19.68-1.25-.95-1.29-4.68-3.9-4.78-5.6s2.03-2.34,2.05-2.49c.05-.4-1.36-.86-1.37-.93-.39-2.74-3.07-6.72-.34-10.59,67.44,25.15,108.89,97.78,91.25,163.15-24.36,6.21-26.9,28.95-10.94,44.52-29.08-13.25-55.22,12.51-40.33,37.67l-28.02,18.68c-2.26-4.21-8.85-4.56-12.3-1.25-.04.04.09.74-.68.62,0-.08-1.76.35-1.37-.93.13-.42,4.73-4.47,5.47-5.6,4.91-7.56,11-13.8,9.57-23.04-.21-1.37-1.06-2.35-2.05-3.42-2.67-2.91-2.04-1.98-4.78.31-3.57,2.98-8.59,10.11-8.89,14.63-.79,12.04,4.36,6.43-4.1,18.68-18.9,11.66-46.3,14.08-68.69,12.45-8.09-.59-16.32-3.07-24.26-4.36.77-4.4,3.98-1.2,4.44-1.25,4.74-.51,9.08-2.14,11.96-5.92,6.03-7.89-.86-10.6-.68-11.21.1-.37,5.71-1.88,6.83-4.36,3.29-7.24-2.97-18.55-12.3-13.08.94-5.09-1.36-12.95-8.54-11.52-3.48.69-5.69,7.75-8.54,4.98-5.8-8.8-23.95-2.59-15.04,7.16-15.36-2.56-19.49,13.9-2.05,15.26-3.6,2.24-9.03,3.07-6.83,8.1-16.75-6.05-35.16-18.87-47.16-31.45-7.26-7.61-11.2-15.97-19.82-22.42.16-1.14,25.95-1.87,19.82-9.03-1.52-1.77-11.2-1.17-13.67-.62s-6.87,4.02-7.86,3.74c-1.68-.48-10.93-19.89-11.96-22.73-9.46-26.06-9.69-54.65-2.73-81.26,26.42,6.65,39.63-34.53,7.52-36.43,5.81-4.57,13.55-7.31,14.35-15.26,2.84-1.17,10.51-12.57,11.96-13.08,3.95-1.37,3.54,2.63,11.28-2.49,2.61-1.73,2.05-1.96,3.42-3.11,4.61-3.88,8.9-8.69,13.67-12.45,30.59-24.14,89.09-31.75,127.81-23.66Z"/>
      <g>
        <g>
          <polygon class="st34" points="497.93 227.98 521.51 228.91 521.85 291.49 555 291.18 555 228.29 579.61 228.91 578.58 384.9 555 383.97 554.66 315.16 521.51 315.47 521.51 383.97 496.9 383.97 497.93 227.98"/>
          <polygon class="st40" points="598.4 228.6 678.71 229.53 677.69 252.89 650.69 253.2 649.66 384.9 625.4 383.97 625.4 253.2 598.4 252.89 598.4 228.6"/>
        </g>
        <path class="st27" d="M722.8,256c5.64-.96,9.63,6.6,8.54,11.52-.22.99-3.66,1.81-2.39,4.67-11.5.99-16.48-14.43-6.15-16.19Z"/>
        <path class="st17" d="M709.13,224.24c.17,2.81,7.5,8,7.86,9.03.5,1.41-.08,15.35-2.39,15.26-8.92-7.52-8.99-14.02-5.47-24.29Z"/>
        <path class="st29" d="M734.07,293.36l-.34-2.49c-2.49,2.92-6.04-.34-9.23-.62-3.32-20.67,24.56-7.36,9.57,3.11Z"/>
        <path class="st33" d="M734.07,293.36c-5.75,4.01-8.59,2.96-9.57-3.11,3.18.28,6.73,3.55,9.23.62l.34,2.49Z"/>
        <path class="st37" d="M657.52,438.46c.08.15-.07.42,0,.62-3.99-1.48-7.97-2.25-12.3-1.87,3.45-3.31,10.04-2.97,12.3,1.25Z"/>
      </g>
    </g>
    <g>
      <path class="st11" d="M716.99,180.65l-4.1.62c-32.23-25.96-82.74-48.19-126.1-50.44-60.28-3.13-125.21,21.47-160.28,66.63-.84.08-4.3,1.44-5.47,1.87,72.28-91.38,207.27-91.66,295.95-18.68Z"/>
      <path class="st44" d="M597.38,119.62c-.18.32-.1,2.87-.68,3.74-45.3-8.38-108.91,15-143.53,41.1l-3.42-.62c10.77-7.91,19.79-14.97,32.12-21.17s40.33-16.6,51.95-19.3c20.4-4.74,42.65-5.14,63.56-3.74Z"/>
      <path class="st17" d="M716.99,180.65c12.36,10.17,23.39,21.06,32.81,33.63-1.48,1.05-3.94,1.72-4.1,1.87-9.11-12.8-20.25-24.76-32.81-34.87l4.1-.62Z"/>
      <path class="st15" d="M654.79,156.37c6.01,5.11,19.48,9.8,27,14.32,24.29,14.6,44.55,34.68,58.44,57.91-.16,4.6,1.58,6.22,2.73,9.96,2.82,9.17,7.57,17.88,10.25,27.09,6.82,23.39,8.66,48.27,2.05,71.92-2.01-.47-4.06-1.14-6.15-1.25,11.66-55.26-10.31-109.82-55.7-146.96-25.61-20.95-62.52-35.36-96.71-39.23-56.19-6.36-114.77,14.18-151.05,53.55-.46-.42-1.85-1.73-2.05-1.87,44.42-46.61,118.48-70.9,184.88-54.18,8.92,2.25,17.25,6.76,26.31,8.72Z"/>
      <path class="st15" d="M596.01,153.87c34.29,2.24,69.8,17.81,95.35,38.61,43.27,35.22,66.29,91.5,53.65,143.85-.17,0-2.46.49-3.42.62,17.56-77.37-36.21-155.13-119.61-174.36-49.82-11.49-107.32-.67-145.58,31.14.42-2.03,10.71-10.82,12.99-12.45,28.33-20.34,71.1-29.72,106.62-27.4Z"/>
      <path class="st11" d="M749.11,336.33c-1.33-.06-2.77-.06-4.1,0,12.63-52.35-10.39-108.63-53.65-143.85-25.55-20.8-61.05-36.37-95.35-38.61l.68-3.74c34.19,3.87,71.1,18.28,96.71,39.23,45.4,37.14,67.36,91.7,55.7,146.96Z"/>
      <path class="st15" d="M767.56,250.4c7.13,22.97,13.2,46.88,12.99,70.99-.15,16.51-4.35,32.59-8.2,48.57-.21.14-.64,1.61-1.71,1.25-.75-.34.8-.97.34-1.87,3.21-9.51,1.7-21.31-6.83-28.02.71-2.38,3.5-4.27,4.1-6.54,1.96-7.42,2.42-28.59,2.05-36.74-.72-16.06-5.34-32.16-9.57-47.64,1.66.22,5.1.15,6.83,0Z"/>
      <path class="st11" d="M741.59,336.95c-1.28.17-3.76.36-4.78.62,17.64-65.37-23.81-138-91.25-163.15-2.73,3.87-.04,7.84.34,10.59-3.46,2.74-2.95,3.21-.68,6.54l-2.73-2.18c-.01-.91-.68-2.95-.68-3.11-.01-.75,1.53-.74,1.37-3.74-.47-8.34-3.25-15.99-14.35-14.32-.48-1.42-5.45-3.3-7.52-3.74l.68-1.87c83.4,19.23,137.17,96.99,119.61,174.36Z"/>
      <path class="st44" d="M760.73,250.4c4.23,15.47,8.85,31.58,9.57,47.64.37,8.15-.09,29.32-2.05,36.74-.6,2.27-3.39,4.15-4.1,6.54-.25-.2-2.59-1.79-2.73-1.87,7.99-29.86,4.17-61.02-4.78-90.29.8.23,3.89,1.22,4.1,1.25Z"/>
      <path class="st11" d="M749.11,245.41c2.91,4.93,6.62,15.31,8.2,20.86,6.72,23.64,7.46,48.65,2.05,72.55-1.35-.57-2.67-.91-4.1-1.25,6.61-23.66,4.77-48.53-2.05-71.92-2.69-9.21-7.44-17.92-10.25-27.09,2.26,2.24,4.53,4.11,6.15,6.85Z"/>
      <path class="st15" d="M756.63,249.15c8.96,29.28,12.78,60.43,4.78,90.29-.13-.07-1.4-.35-2.05-.62,5.41-23.9,4.67-48.91-2.05-72.55-1.58-5.55-5.29-15.93-8.2-20.86,2.42.14,4.89,2.98,7.52,3.74Z"/>
      <path class="st15" d="M712.89,181.27c12.55,10.11,23.7,22.07,32.81,34.87-.14.13.18.44-1.37,2.49-10.95-15.8-25.18-28.83-41.01-40.48-13.71-10.09-27.45-18.53-43.74-24.91-76.6-30-165.26-10.07-219.4,46.7-4.32-1.95-8.83-2.97-13.67-2.49,35.06-45.16,100-69.76,160.28-66.63,43.36,2.25,93.88,24.48,126.1,50.44Z"/>
      <path class="st44" d="M596.69,150.14l-.68,3.74c-35.53-2.32-78.3,7.06-106.62,27.4l-1.37-.93c-3.8,4.95-12.11,8.2-16.4,11.83-1.36,1.15-.46,1.14,0,2.18-1.58.46-8.83,4.72-8.2,6.54.94,2.73,4.48.5,6.49.93,2.61.56,4.17,2.42,6.49,1.87-7.74,5.12-7.33,1.12-11.28,2.49-1.46.5-9.12,11.91-11.96,13.08.2-1.93-.12-4.37-.68-6.23,6.3-5.58,8.91-14.36,14.35-20.24,7.67-8.29,22.18-14.82,31.44-21.8-19.48,7.86-36.17,21.06-49.89,35.81-.34-.43-2.5-2.9-2.73-3.11,36.28-39.37,94.87-59.91,151.05-53.55Z"/>
      <path class="st11" d="M659.57,153.25c-2.55,3.24-3.37-.07-5.81.62-1.62.81-.16,1.49,1.03,2.49-9.06-1.96-17.4-6.47-26.31-8.72-66.4-16.72-140.46,7.57-184.88,54.18-.25-.17-2.99-1.68-3.42-1.87,54.14-56.77,142.8-76.7,219.4-46.7Z"/>
      <path class="st15" d="M452.48,213.03c-.5-1.67-2.9-4.7-4.1-6.23,13.72-14.74,30.41-27.95,49.89-35.81-9.26,6.98-23.77,13.51-31.44,21.8-5.44,5.88-8.05,14.66-14.35,20.24Z"/>
      <path class="st11" d="M703.32,178.16c-1.74-.54-.76,2.68-.68,2.8,3.3,5.17,18.96,17.02,24.61,23.35,5.19,5.81,9.61,12.55,14.35,18.68-.71,1.8-1.3,3.65-1.37,5.6-13.89-23.23-34.14-43.31-58.44-57.91-7.52-4.52-20.99-9.21-27-14.32-1.18-1.01-2.65-1.68-1.03-2.49,2.44-.7,3.26,2.62,5.81-.62,16.29,6.38,30.03,14.82,43.74,24.91Z"/>
      <path class="st11" d="M703.32,178.16c15.83,11.64,30.06,24.68,41.01,40.48-.55.72-.93,1.69-1.37,2.49l-15.72-16.81c-5.64-6.33-21.3-18.19-24.61-23.35-.08-.12-1.06-3.35.68-2.8Z"/>
      <path class="st15" d="M742.96,221.13c-.34.63-1.33,1.76-1.37,1.87-4.74-6.13-9.17-12.87-14.35-18.68l15.72,16.81Z"/>
      <g>
        <path class="st11" d="M777.13,247.9c8.53,16.96,9.48,34.55,10.94,52.93-1.77,4.06-2.21,14.28-4.1,18.37-.08.18-2.87,1.61-3.42,2.18.21-24.11-5.86-48.02-12.99-70.99,1.71-.14,8.16-1.79,9.57-2.49Z"/>
        <path class="st15" d="M773.37,251.02c4.19,12.65,6.59,26.53,6.49,40.48l-6.49-40.48Z"/>
      </g>
      <path class="st44" d="M621.98,162.59l-.68,1.87c-38.73-8.09-97.23-.47-127.81,23.66.73-4.44-6.95,1.79-7.86,2.49-2.61,2.01-7.03,5.55-7.18,8.72-1.22-1.47-2.1-3.1-2.05-4.98,0-.2-.04-.43,0-.62,38.26-31.8,95.76-42.62,145.58-31.14Z"/>
      <path class="st16" d="M476.4,194.35c-.05,1.89.83,3.51,2.05,4.98.31.38.54,1.29,1.37,1.25-1.37,1.15-.81,1.39-3.42,3.11-2.32.56-3.89-1.31-6.49-1.87-2.01-.43-5.55,1.79-6.49-.93-.63-1.82,6.62-6.08,8.2-6.54.39-.11,3.58.77,4.78,0Z"/>
      <path class="st11" d="M493.49,188.12c-4.77,3.77-9.06,8.58-13.67,12.45-.83.04-1.06-.87-1.37-1.25.15-3.17,4.57-6.7,7.18-8.72.91-.7,8.59-6.93,7.86-2.49Z"/>
      <path class="st20" d="M489.38,181.27c-2.28,1.64-12.56,10.43-12.99,12.45-.04.19,0,.42,0,.62-1.2.77-4.39-.11-4.78,0-.46-1.04-1.36-1.03,0-2.18,4.29-3.64,12.6-6.88,16.4-11.83l1.37.93Z"/>
    </g>
    <path class="st15" d="M619.93,450.91c6.5-1.01,12.95-2.37,19.48-3.11l.34,2.49c-71.06,26.35-129.47,7.33-179.76-41.1.12-1.3,2.84.46,3.08.62,20.75,14.63,29.16,23.48,55.36,33,35.98,13.08,63.72,13.95,101.5,8.1Z"/>
    <path class="st15" d="M684.18,429.74c-8.84,5.23-13.22,8.03-23.24,11.83l27.34-19.3-4.1,7.47Z"/>
    <g>
      <path class="st12" d="M545.43,446.55c-2.32-.38-6.21,1.04-9.91,0-4.04-1.13-6.99-6.79-7.52-6.85-.34-.04-1.63,1.85-6.15.62-1.84-.5-6.44-3.91-7.18-5.6-2.19-5.02,3.24-5.85,6.83-8.1,2.07-1.29-.86-3.56,5.13-.62l1.03-1.56-2.73-1.25c2.77-2.07,4.87,2.62,8.2.93.37.67,3.48,4.26,3.76,4.36.31.11,5.93-.29,6.49-.93,4.04-4.6-2.95-8.07-3.42-9.34-.89-2.45,3.95-10.53-.68-9.03-.1-1.42.02-3.91-.68-4.98,2.85,2.76,5.06-4.29,8.54-4.98,7.19-1.43,9.48,6.43,8.54,11.52,9.34-5.48,15.6,5.84,12.3,13.08-1.13,2.48-6.73,3.99-6.83,4.36-.17.61,6.71,3.32.68,11.21-2.88,3.78-7.22,5.41-11.96,5.92-.47.05-3.67-3.15-4.44,1.25Z"/>
      <path class="st25" d="M538.6,404.21c.71,1.07.58,3.56.68,4.98.14,2,.12,7.52-.68,9.03-.2.38-6.12,5.62-6.83,4.36.61.46,1,.9,1.37,1.56-3.33,1.68-5.43-3-8.2-.93l2.73,1.25-1.03,1.56c-5.99-2.93-3.05-.67-5.13.62-17.44-1.36-13.31-17.82,2.05-15.26-8.92-9.76,9.24-15.96,15.04-7.16Z"/>
      <path class="st3" d="M533.13,424.13c-.36-.65-.76-1.1-1.37-1.56.72,1.26,6.63-3.98,6.83-4.36.8-1.51.82-7.03.68-9.03,4.63-1.5-.21,6.58.68,9.03.46,1.27,7.46,4.74,3.42,9.34-.56.64-6.19,1.04-6.49.93-.28-.1-3.39-3.69-3.76-4.36Z"/>
    </g>
    <g>
      <path class="st11" d="M641.8,186.26c0,.16.67,2.2.68,3.11.08,6.22,1.68,10.64.68,16.81-.18-.12-1.12.13-1.37,0-6.13-3.12-2.99.61-7.18.62-.49,0-8.05-3.2-8.89-3.74-5.79-3.71-7.62-12.07-10.59-16.5-1.25-1.86-.13-4.05-4.78-4.67,1.94-3.66,7.83-7.86,11.62-9.96,4.51,5.95,10.68,16.63,19.82,14.32Z"/>
      <path class="st20" d="M641.8,206.18l3.76,3.74c.74-.95-1.8-3.33-2.39-3.74,1-6.17-.61-10.6-.68-16.81l2.73,2.18c-2.26-3.33-2.78-3.8.68-6.54.01.08,1.41.53,1.37.93-.02.15-2.15.75-2.05,2.49s3.84,4.32,4.78,5.6c.04.06-1.1.66-.68,1.25,3.41,4.79,8.35,1.65,4.1,11.83-.25.6-4.7,6.43-5.13,6.54-3.98.98-27.45-7.81-31.44-10.59-7.85-5.46-10.89-12.86-6.49-21.17,4.66.62,3.53,2.81,4.78,4.67,2.97,4.43,4.8,12.79,10.59,16.5.83.53,8.4,3.74,8.89,3.74,4.18-.01,1.05-3.74,7.18-.62Z"/>
      <path class="st7" d="M643.17,182.52c-8.03-1.87-18.66-3.81-15.04-13.7.05-.01-.25-.48.68-.62,11.1-1.67,13.89,5.98,14.35,14.32Z"/>
      <path class="st16" d="M628.13,168.82c-3.63,9.89,7,11.83,15.04,13.7.17,2.99-1.38,2.99-1.37,3.74-9.15,2.31-15.31-8.37-19.82-14.32,2.2-1.22,3.48-2.46,6.15-3.11Z"/>
      <path class="st36" d="M643.17,206.18c.59.41,3.13,2.79,2.39,3.74l-3.76-3.74c.25.13,1.19-.12,1.37,0Z"/>
    </g>
  </g>
</svg>